<mxfile host="Electron" agent="Mozilla/5.0 (Windows NT 10.0; Win64; x64) AppleWebKit/537.36 (KHTML, like Gecko) draw.io/26.2.15 Chrome/134.0.6998.205 Electron/35.2.1 Safari/537.36" version="26.2.15" pages="5">
  <diagram name="Информационная модель" id="R1JeiTfJ4Bhc5hjbqf6w">
    <mxGraphModel dx="1181" dy="915" grid="1" gridSize="10" guides="0" tooltips="1" connect="1" arrows="1" fold="1" page="1" pageScale="1" pageWidth="1169" pageHeight="827" math="0" shadow="0">
      <root>
        <mxCell id="0" />
        <mxCell id="1" parent="0" />
        <mxCell id="PLtpHanoAAqpnt5I0EU1-1" value="1. Электрообогреватель (Э)" style="swimlane;fontStyle=0;childLayout=stackLayout;horizontal=1;startSize=26;fillColor=none;horizontalStack=0;resizeParent=1;resizeParentMax=0;resizeLast=0;collapsible=1;marginBottom=0;whiteSpace=wrap;html=1;" parent="1" vertex="1">
          <mxGeometry x="480" y="40" width="240" height="208" as="geometry" />
        </mxCell>
        <mxCell id="PLtpHanoAAqpnt5I0EU1-2" value="* ID Электрообогревателя" style="text;strokeColor=none;fillColor=none;align=left;verticalAlign=top;spacingLeft=4;spacingRight=4;overflow=hidden;rotatable=0;points=[[0,0.5],[1,0.5]];portConstraint=eastwest;whiteSpace=wrap;html=1;" parent="PLtpHanoAAqpnt5I0EU1-1" vertex="1">
          <mxGeometry y="26" width="240" height="26" as="geometry" />
        </mxCell>
        <mxCell id="PLtpHanoAAqpnt5I0EU1-3" value="- ID Вилки (R1)" style="text;strokeColor=none;fillColor=none;align=left;verticalAlign=top;spacingLeft=4;spacingRight=4;overflow=hidden;rotatable=0;points=[[0,0.5],[1,0.5]];portConstraint=eastwest;whiteSpace=wrap;html=1;" parent="PLtpHanoAAqpnt5I0EU1-1" vertex="1">
          <mxGeometry y="52" width="240" height="26" as="geometry" />
        </mxCell>
        <mxCell id="PLtpHanoAAqpnt5I0EU1-4" value="- ID Переключателя нагрева (R2)" style="text;strokeColor=none;fillColor=none;align=left;verticalAlign=top;spacingLeft=4;spacingRight=4;overflow=hidden;rotatable=0;points=[[0,0.5],[1,0.5]];portConstraint=eastwest;whiteSpace=wrap;html=1;" parent="PLtpHanoAAqpnt5I0EU1-1" vertex="1">
          <mxGeometry y="78" width="240" height="26" as="geometry" />
        </mxCell>
        <mxCell id="PLtpHanoAAqpnt5I0EU1-10" value="- ID Нагревательного элемента (R3)" style="text;strokeColor=none;fillColor=none;align=left;verticalAlign=top;spacingLeft=4;spacingRight=4;overflow=hidden;rotatable=0;points=[[0,0.5],[1,0.5]];portConstraint=eastwest;whiteSpace=wrap;html=1;" parent="PLtpHanoAAqpnt5I0EU1-1" vertex="1">
          <mxGeometry y="104" width="240" height="26" as="geometry" />
        </mxCell>
        <mxCell id="PLtpHanoAAqpnt5I0EU1-12" value="- ID Светового индикатора работы (R4)" style="text;strokeColor=none;fillColor=none;align=left;verticalAlign=top;spacingLeft=4;spacingRight=4;overflow=hidden;rotatable=0;points=[[0,0.5],[1,0.5]];portConstraint=eastwest;whiteSpace=wrap;html=1;" parent="PLtpHanoAAqpnt5I0EU1-1" vertex="1">
          <mxGeometry y="130" width="240" height="26" as="geometry" />
        </mxCell>
        <mxCell id="A_e3kqN5Y3DXa1lIoO34-5" value="- ID Светового индикатора нагрева (R5)" style="text;strokeColor=none;fillColor=none;align=left;verticalAlign=top;spacingLeft=4;spacingRight=4;overflow=hidden;rotatable=0;points=[[0,0.5],[1,0.5]];portConstraint=eastwest;whiteSpace=wrap;html=1;" parent="PLtpHanoAAqpnt5I0EU1-1" vertex="1">
          <mxGeometry y="156" width="240" height="26" as="geometry" />
        </mxCell>
        <mxCell id="PLtpHanoAAqpnt5I0EU1-13" value="- Состояние" style="text;strokeColor=none;fillColor=none;align=left;verticalAlign=top;spacingLeft=4;spacingRight=4;overflow=hidden;rotatable=0;points=[[0,0.5],[1,0.5]];portConstraint=eastwest;whiteSpace=wrap;html=1;" parent="PLtpHanoAAqpnt5I0EU1-1" vertex="1">
          <mxGeometry y="182" width="240" height="26" as="geometry" />
        </mxCell>
        <mxCell id="PLtpHanoAAqpnt5I0EU1-18" style="edgeStyle=orthogonalEdgeStyle;rounded=0;orthogonalLoop=1;jettySize=auto;html=1;startArrow=classic;startFill=1;" parent="1" source="PLtpHanoAAqpnt5I0EU1-14" target="PLtpHanoAAqpnt5I0EU1-1" edge="1">
          <mxGeometry relative="1" as="geometry">
            <Array as="points">
              <mxPoint x="100" y="350" />
              <mxPoint x="600" y="350" />
            </Array>
          </mxGeometry>
        </mxCell>
        <mxCell id="PLtpHanoAAqpnt5I0EU1-14" value="2. Вилка (В)" style="swimlane;fontStyle=0;childLayout=stackLayout;horizontal=1;startSize=26;fillColor=none;horizontalStack=0;resizeParent=1;resizeParentMax=0;resizeLast=0;collapsible=1;marginBottom=0;whiteSpace=wrap;html=1;" parent="1" vertex="1">
          <mxGeometry x="30" y="410" width="140" height="78" as="geometry" />
        </mxCell>
        <mxCell id="PLtpHanoAAqpnt5I0EU1-15" value="* ID Вилки (R1&lt;span style=&quot;background-color: transparent; color: light-dark(rgb(0, 0, 0), rgb(255, 255, 255));&quot;&gt;)&lt;/span&gt;" style="text;strokeColor=none;fillColor=none;align=left;verticalAlign=top;spacingLeft=4;spacingRight=4;overflow=hidden;rotatable=0;points=[[0,0.5],[1,0.5]];portConstraint=eastwest;whiteSpace=wrap;html=1;" parent="PLtpHanoAAqpnt5I0EU1-14" vertex="1">
          <mxGeometry y="26" width="140" height="26" as="geometry" />
        </mxCell>
        <mxCell id="PLtpHanoAAqpnt5I0EU1-16" value="- Состояние" style="text;strokeColor=none;fillColor=none;align=left;verticalAlign=top;spacingLeft=4;spacingRight=4;overflow=hidden;rotatable=0;points=[[0,0.5],[1,0.5]];portConstraint=eastwest;whiteSpace=wrap;html=1;" parent="PLtpHanoAAqpnt5I0EU1-14" vertex="1">
          <mxGeometry y="52" width="140" height="26" as="geometry" />
        </mxCell>
        <mxCell id="PLtpHanoAAqpnt5I0EU1-19" value="R1" style="text;html=1;align=center;verticalAlign=middle;resizable=0;points=[];autosize=1;strokeColor=none;fillColor=none;fontFamily=Helvetica;fontSize=11;fontColor=default;labelBackgroundColor=default;" parent="1" vertex="1">
          <mxGeometry x="80" y="360" width="40" height="30" as="geometry" />
        </mxCell>
        <mxCell id="PLtpHanoAAqpnt5I0EU1-29" style="edgeStyle=orthogonalEdgeStyle;shape=connector;rounded=0;orthogonalLoop=1;jettySize=auto;html=1;strokeColor=default;align=center;verticalAlign=middle;fontFamily=Helvetica;fontSize=11;fontColor=default;labelBackgroundColor=default;startArrow=classic;startFill=1;endArrow=classic;" parent="1" source="PLtpHanoAAqpnt5I0EU1-21" target="PLtpHanoAAqpnt5I0EU1-1" edge="1">
          <mxGeometry relative="1" as="geometry">
            <Array as="points">
              <mxPoint x="310" y="350" />
              <mxPoint x="600" y="350" />
            </Array>
          </mxGeometry>
        </mxCell>
        <mxCell id="PLtpHanoAAqpnt5I0EU1-21" value="3. Переключатель Нагрева (ПН)" style="swimlane;fontStyle=0;childLayout=stackLayout;horizontal=1;startSize=26;fillColor=none;horizontalStack=0;resizeParent=1;resizeParentMax=0;resizeLast=0;collapsible=1;marginBottom=0;whiteSpace=wrap;html=1;" parent="1" vertex="1">
          <mxGeometry x="200" y="410" width="210" height="78" as="geometry" />
        </mxCell>
        <mxCell id="PLtpHanoAAqpnt5I0EU1-22" value="* ID Переключателя нагрева (R2&lt;span style=&quot;background-color: transparent; color: light-dark(rgb(0, 0, 0), rgb(255, 255, 255));&quot;&gt;)&lt;/span&gt;" style="text;strokeColor=none;fillColor=none;align=left;verticalAlign=top;spacingLeft=4;spacingRight=4;overflow=hidden;rotatable=0;points=[[0,0.5],[1,0.5]];portConstraint=eastwest;whiteSpace=wrap;html=1;" parent="PLtpHanoAAqpnt5I0EU1-21" vertex="1">
          <mxGeometry y="26" width="210" height="26" as="geometry" />
        </mxCell>
        <mxCell id="PLtpHanoAAqpnt5I0EU1-23" value="- Состояние" style="text;strokeColor=none;fillColor=none;align=left;verticalAlign=top;spacingLeft=4;spacingRight=4;overflow=hidden;rotatable=0;points=[[0,0.5],[1,0.5]];portConstraint=eastwest;whiteSpace=wrap;html=1;" parent="PLtpHanoAAqpnt5I0EU1-21" vertex="1">
          <mxGeometry y="52" width="210" height="26" as="geometry" />
        </mxCell>
        <mxCell id="PLtpHanoAAqpnt5I0EU1-27" value="R2" style="text;html=1;align=center;verticalAlign=middle;resizable=0;points=[];autosize=1;strokeColor=none;fillColor=none;fontFamily=Helvetica;fontSize=11;fontColor=default;labelBackgroundColor=default;" parent="1" vertex="1">
          <mxGeometry x="289" y="363" width="40" height="30" as="geometry" />
        </mxCell>
        <mxCell id="A_e3kqN5Y3DXa1lIoO34-1" style="edgeStyle=orthogonalEdgeStyle;rounded=0;orthogonalLoop=1;jettySize=auto;html=1;startArrow=classic;startFill=1;" parent="1" source="PLtpHanoAAqpnt5I0EU1-36" target="PLtpHanoAAqpnt5I0EU1-1" edge="1">
          <mxGeometry relative="1" as="geometry">
            <Array as="points">
              <mxPoint x="550" y="350" />
              <mxPoint x="600" y="350" />
            </Array>
          </mxGeometry>
        </mxCell>
        <mxCell id="PLtpHanoAAqpnt5I0EU1-36" value="4. Нагревательный элемент (НЭ)" style="swimlane;fontStyle=0;childLayout=stackLayout;horizontal=1;startSize=26;fillColor=none;horizontalStack=0;resizeParent=1;resizeParentMax=0;resizeLast=0;collapsible=1;marginBottom=0;whiteSpace=wrap;html=1;" parent="1" vertex="1">
          <mxGeometry x="450" y="410" width="230" height="78" as="geometry" />
        </mxCell>
        <mxCell id="PLtpHanoAAqpnt5I0EU1-37" value="* ID Нагревательного элемента (R3&lt;span style=&quot;background-color: transparent; color: light-dark(rgb(0, 0, 0), rgb(255, 255, 255));&quot;&gt;)&lt;/span&gt;" style="text;strokeColor=none;fillColor=none;align=left;verticalAlign=top;spacingLeft=4;spacingRight=4;overflow=hidden;rotatable=0;points=[[0,0.5],[1,0.5]];portConstraint=eastwest;whiteSpace=wrap;html=1;" parent="PLtpHanoAAqpnt5I0EU1-36" vertex="1">
          <mxGeometry y="26" width="230" height="26" as="geometry" />
        </mxCell>
        <mxCell id="PLtpHanoAAqpnt5I0EU1-38" value="- Состояние" style="text;strokeColor=none;fillColor=none;align=left;verticalAlign=top;spacingLeft=4;spacingRight=4;overflow=hidden;rotatable=0;points=[[0,0.5],[1,0.5]];portConstraint=eastwest;whiteSpace=wrap;html=1;" parent="PLtpHanoAAqpnt5I0EU1-36" vertex="1">
          <mxGeometry y="52" width="230" height="26" as="geometry" />
        </mxCell>
        <mxCell id="PLtpHanoAAqpnt5I0EU1-41" value="R3" style="text;html=1;align=center;verticalAlign=middle;resizable=0;points=[];autosize=1;strokeColor=none;fillColor=none;fontFamily=Helvetica;fontSize=11;fontColor=default;labelBackgroundColor=default;" parent="1" vertex="1">
          <mxGeometry x="530" y="360" width="40" height="30" as="geometry" />
        </mxCell>
        <mxCell id="PLtpHanoAAqpnt5I0EU1-49" style="edgeStyle=orthogonalEdgeStyle;shape=connector;rounded=0;orthogonalLoop=1;jettySize=auto;html=1;strokeColor=default;align=center;verticalAlign=middle;fontFamily=Helvetica;fontSize=11;fontColor=default;labelBackgroundColor=default;startArrow=classic;startFill=1;endArrow=classic;" parent="1" source="PLtpHanoAAqpnt5I0EU1-46" target="PLtpHanoAAqpnt5I0EU1-1" edge="1">
          <mxGeometry relative="1" as="geometry">
            <Array as="points">
              <mxPoint x="814" y="350" />
              <mxPoint x="600" y="350" />
            </Array>
          </mxGeometry>
        </mxCell>
        <mxCell id="PLtpHanoAAqpnt5I0EU1-46" value="5. Световой индикатор работы (СИР)" style="swimlane;fontStyle=0;childLayout=stackLayout;horizontal=1;startSize=26;fillColor=none;horizontalStack=0;resizeParent=1;resizeParentMax=0;resizeLast=0;collapsible=1;marginBottom=0;whiteSpace=wrap;html=1;" parent="1" vertex="1">
          <mxGeometry x="719" y="410" width="190" height="86" as="geometry" />
        </mxCell>
        <mxCell id="PLtpHanoAAqpnt5I0EU1-47" value="* ID Светового индикатора работы (R4)" style="text;strokeColor=none;fillColor=none;align=left;verticalAlign=top;spacingLeft=4;spacingRight=4;overflow=hidden;rotatable=0;points=[[0,0.5],[1,0.5]];portConstraint=eastwest;whiteSpace=wrap;html=1;" parent="PLtpHanoAAqpnt5I0EU1-46" vertex="1">
          <mxGeometry y="26" width="190" height="34" as="geometry" />
        </mxCell>
        <mxCell id="PLtpHanoAAqpnt5I0EU1-48" value="- Состояние" style="text;strokeColor=none;fillColor=none;align=left;verticalAlign=top;spacingLeft=4;spacingRight=4;overflow=hidden;rotatable=0;points=[[0,0.5],[1,0.5]];portConstraint=eastwest;whiteSpace=wrap;html=1;" parent="PLtpHanoAAqpnt5I0EU1-46" vertex="1">
          <mxGeometry y="60" width="190" height="26" as="geometry" />
        </mxCell>
        <mxCell id="PLtpHanoAAqpnt5I0EU1-54" value="R4" style="text;html=1;align=center;verticalAlign=middle;resizable=0;points=[];autosize=1;strokeColor=none;fillColor=none;fontFamily=Helvetica;fontSize=11;fontColor=default;labelBackgroundColor=default;" parent="1" vertex="1">
          <mxGeometry x="794" y="358" width="40" height="30" as="geometry" />
        </mxCell>
        <mxCell id="A_e3kqN5Y3DXa1lIoO34-6" style="edgeStyle=orthogonalEdgeStyle;rounded=0;orthogonalLoop=1;jettySize=auto;html=1;" parent="1" source="A_e3kqN5Y3DXa1lIoO34-2" target="PLtpHanoAAqpnt5I0EU1-1" edge="1">
          <mxGeometry relative="1" as="geometry">
            <Array as="points">
              <mxPoint x="1044" y="350" />
              <mxPoint x="600" y="350" />
            </Array>
          </mxGeometry>
        </mxCell>
        <mxCell id="A_e3kqN5Y3DXa1lIoO34-2" value="5. Световой индикатор нагрева (СИН)" style="swimlane;fontStyle=0;childLayout=stackLayout;horizontal=1;startSize=26;fillColor=none;horizontalStack=0;resizeParent=1;resizeParentMax=0;resizeLast=0;collapsible=1;marginBottom=0;whiteSpace=wrap;html=1;" parent="1" vertex="1">
          <mxGeometry x="949" y="410" width="190" height="86" as="geometry" />
        </mxCell>
        <mxCell id="A_e3kqN5Y3DXa1lIoO34-3" value="* ID Светового индикатора нагрева (R5)" style="text;strokeColor=none;fillColor=none;align=left;verticalAlign=top;spacingLeft=4;spacingRight=4;overflow=hidden;rotatable=0;points=[[0,0.5],[1,0.5]];portConstraint=eastwest;whiteSpace=wrap;html=1;" parent="A_e3kqN5Y3DXa1lIoO34-2" vertex="1">
          <mxGeometry y="26" width="190" height="34" as="geometry" />
        </mxCell>
        <mxCell id="A_e3kqN5Y3DXa1lIoO34-4" value="- Состояние" style="text;strokeColor=none;fillColor=none;align=left;verticalAlign=top;spacingLeft=4;spacingRight=4;overflow=hidden;rotatable=0;points=[[0,0.5],[1,0.5]];portConstraint=eastwest;whiteSpace=wrap;html=1;" parent="A_e3kqN5Y3DXa1lIoO34-2" vertex="1">
          <mxGeometry y="60" width="190" height="26" as="geometry" />
        </mxCell>
        <mxCell id="A_e3kqN5Y3DXa1lIoO34-10" value="R5" style="text;html=1;align=center;verticalAlign=middle;resizable=0;points=[];autosize=1;strokeColor=none;fillColor=none;fontFamily=Helvetica;fontSize=11;fontColor=default;labelBackgroundColor=default;" parent="1" vertex="1">
          <mxGeometry x="1024" y="358" width="40" height="30" as="geometry" />
        </mxCell>
      </root>
    </mxGraphModel>
  </diagram>
  <diagram id="I5YWEyETB5i-tWm8w-OI" name="ДПС + ТПС">
    <mxGraphModel dx="1042" dy="778" grid="1" gridSize="10" guides="1" tooltips="1" connect="1" arrows="1" fold="1" page="1" pageScale="1" pageWidth="1169" pageHeight="827" math="0" shadow="0">
      <root>
        <mxCell id="0" />
        <mxCell id="1" parent="0" />
        <mxCell id="K9VQBqrEuYd4zQ6jPz8y-1" value="&lt;font style=&quot;font-size: 14px;&quot;&gt;&lt;b&gt;Электрообогреватель&lt;/b&gt;&lt;/font&gt;" style="text;html=1;align=center;verticalAlign=middle;resizable=0;points=[];autosize=1;strokeColor=none;fillColor=none;fontFamily=Helvetica;fontSize=11;fontColor=default;labelBackgroundColor=default;" parent="1" vertex="1">
          <mxGeometry x="90" y="8" width="180" height="30" as="geometry" />
        </mxCell>
        <mxCell id="K9VQBqrEuYd4zQ6jPz8y-2" value="&lt;div style=&quot;line-height: 160%;&quot;&gt;&lt;span&gt;Э1: Электрообогреватель отключен&lt;/span&gt;&lt;div&gt;&lt;span&gt;Э2:&amp;nbsp;&lt;/span&gt;&lt;span style=&quot;background-color: transparent; color: light-dark(rgb(0, 0, 0), rgb(255, 255, 255));&quot;&gt;Электрообогреватель включен&lt;/span&gt;&lt;/div&gt;&lt;div&gt;&lt;span&gt;Э3: Нагрев выключен&lt;/span&gt;&lt;/div&gt;&lt;div&gt;&lt;span&gt;Э4: Нагрев включен&lt;br&gt;&lt;/span&gt;&lt;/div&gt;&lt;div&gt;&lt;/div&gt;&lt;/div&gt;" style="text;html=1;align=left;verticalAlign=middle;resizable=0;points=[];autosize=1;fontFamily=Helvetica;fontSize=11;labelBackgroundColor=none;opacity=0;fillColor=none;rounded=0;glass=0;" parent="1" vertex="1">
          <mxGeometry x="360" y="43" width="210" height="80" as="geometry" />
        </mxCell>
        <mxCell id="9QpgvQCh8sdaBDVkwrHl-4" style="edgeStyle=orthogonalEdgeStyle;rounded=0;orthogonalLoop=1;jettySize=auto;html=1;exitX=0.25;exitY=1;exitDx=0;exitDy=0;entryX=0.25;entryY=0;entryDx=0;entryDy=0;" parent="1" source="K9VQBqrEuYd4zQ6jPz8y-4" target="K9VQBqrEuYd4zQ6jPz8y-15" edge="1">
          <mxGeometry relative="1" as="geometry" />
        </mxCell>
        <mxCell id="K9VQBqrEuYd4zQ6jPz8y-4" value="1. Выключен" style="html=1;whiteSpace=wrap;fontFamily=Helvetica;fontSize=11;fontColor=default;labelBackgroundColor=default;" parent="1" vertex="1">
          <mxGeometry x="120" y="120" width="130" height="30" as="geometry" />
        </mxCell>
        <mxCell id="K9VQBqrEuYd4zQ6jPz8y-7" value="" style="endArrow=none;startArrow=classic;html=1;rounded=0;strokeColor=default;align=center;verticalAlign=middle;fontFamily=Helvetica;fontSize=11;fontColor=default;labelBackgroundColor=default;exitX=0.5;exitY=0;exitDx=0;exitDy=0;startFill=1;" parent="1" source="K9VQBqrEuYd4zQ6jPz8y-4" edge="1">
          <mxGeometry width="50" height="50" relative="1" as="geometry">
            <mxPoint x="210" y="100" as="sourcePoint" />
            <mxPoint x="185" y="50" as="targetPoint" />
          </mxGeometry>
        </mxCell>
        <mxCell id="K9VQBqrEuYd4zQ6jPz8y-13" value="Э2" style="text;html=1;align=center;verticalAlign=middle;resizable=0;points=[];autosize=1;strokeColor=none;fillColor=none;fontFamily=Helvetica;fontSize=11;fontColor=default;labelBackgroundColor=default;" parent="1" vertex="1">
          <mxGeometry x="131" y="170" width="40" height="30" as="geometry" />
        </mxCell>
        <mxCell id="9QpgvQCh8sdaBDVkwrHl-5" style="edgeStyle=orthogonalEdgeStyle;rounded=0;orthogonalLoop=1;jettySize=auto;html=1;exitX=0.75;exitY=0;exitDx=0;exitDy=0;entryX=0.75;entryY=1;entryDx=0;entryDy=0;" parent="1" source="K9VQBqrEuYd4zQ6jPz8y-15" target="K9VQBqrEuYd4zQ6jPz8y-4" edge="1">
          <mxGeometry relative="1" as="geometry" />
        </mxCell>
        <mxCell id="9QpgvQCh8sdaBDVkwrHl-10" style="edgeStyle=orthogonalEdgeStyle;rounded=0;orthogonalLoop=1;jettySize=auto;html=1;exitX=0.25;exitY=1;exitDx=0;exitDy=0;entryX=0.25;entryY=0;entryDx=0;entryDy=0;" parent="1" source="K9VQBqrEuYd4zQ6jPz8y-15" target="K9VQBqrEuYd4zQ6jPz8y-34" edge="1">
          <mxGeometry relative="1" as="geometry" />
        </mxCell>
        <mxCell id="K9VQBqrEuYd4zQ6jPz8y-15" value="2. Ожидание" style="html=1;whiteSpace=wrap;fontFamily=Helvetica;fontSize=11;fontColor=default;labelBackgroundColor=default;" parent="1" vertex="1">
          <mxGeometry x="120" y="230" width="130" height="30" as="geometry" />
        </mxCell>
        <mxCell id="K9VQBqrEuYd4zQ6jPz8y-46" style="edgeStyle=orthogonalEdgeStyle;shape=connector;rounded=0;orthogonalLoop=1;jettySize=auto;html=1;entryX=0;entryY=0.5;entryDx=0;entryDy=0;strokeColor=default;align=center;verticalAlign=middle;fontFamily=Helvetica;fontSize=11;fontColor=default;labelBackgroundColor=default;startArrow=none;startFill=0;endArrow=classic;" parent="1" source="K9VQBqrEuYd4zQ6jPz8y-34" target="K9VQBqrEuYd4zQ6jPz8y-4" edge="1">
          <mxGeometry relative="1" as="geometry">
            <Array as="points">
              <mxPoint x="90" y="340" />
              <mxPoint x="90" y="135" />
            </Array>
          </mxGeometry>
        </mxCell>
        <mxCell id="9QpgvQCh8sdaBDVkwrHl-11" style="edgeStyle=orthogonalEdgeStyle;rounded=0;orthogonalLoop=1;jettySize=auto;html=1;exitX=0.75;exitY=0;exitDx=0;exitDy=0;entryX=0.75;entryY=1;entryDx=0;entryDy=0;" parent="1" source="K9VQBqrEuYd4zQ6jPz8y-34" target="K9VQBqrEuYd4zQ6jPz8y-15" edge="1">
          <mxGeometry relative="1" as="geometry" />
        </mxCell>
        <mxCell id="K9VQBqrEuYd4zQ6jPz8y-34" value="3. Нагрев" style="html=1;whiteSpace=wrap;fontFamily=Helvetica;fontSize=11;fontColor=default;labelBackgroundColor=default;" parent="1" vertex="1">
          <mxGeometry x="120" y="320" width="130" height="40" as="geometry" />
        </mxCell>
        <mxCell id="K9VQBqrEuYd4zQ6jPz8y-47" value="Э1" style="text;html=1;align=center;verticalAlign=middle;resizable=0;points=[];autosize=1;strokeColor=none;fillColor=none;fontFamily=Helvetica;fontSize=11;fontColor=default;labelBackgroundColor=default;" parent="1" vertex="1">
          <mxGeometry x="69" y="230" width="40" height="30" as="geometry" />
        </mxCell>
        <mxCell id="K9VQBqrEuYd4zQ6jPz8y-52" value="ТПС Электрообогревателя" style="shape=table;startSize=30;container=1;collapsible=0;childLayout=tableLayout;strokeColor=default;fontSize=16;fontFamily=Helvetica;fontColor=default;labelBackgroundColor=none;" parent="1" vertex="1">
          <mxGeometry x="360" y="130" width="239" height="163" as="geometry" />
        </mxCell>
        <mxCell id="K9VQBqrEuYd4zQ6jPz8y-53" value="" style="shape=tableRow;horizontal=0;startSize=0;swimlaneHead=0;swimlaneBody=0;strokeColor=inherit;top=0;left=0;bottom=0;right=0;collapsible=0;dropTarget=0;fillColor=none;points=[[0,0.5],[1,0.5]];portConstraint=eastwest;fontSize=16;fontFamily=Helvetica;fontColor=default;labelBackgroundColor=default;" parent="K9VQBqrEuYd4zQ6jPz8y-52" vertex="1">
          <mxGeometry y="30" width="239" height="33" as="geometry" />
        </mxCell>
        <mxCell id="K9VQBqrEuYd4zQ6jPz8y-54" value="№" style="shape=partialRectangle;html=1;whiteSpace=wrap;connectable=0;strokeColor=inherit;overflow=hidden;fillColor=none;top=0;left=0;bottom=0;right=0;pointerEvents=1;fontSize=16;fontFamily=Helvetica;fontColor=default;labelBackgroundColor=default;" parent="K9VQBqrEuYd4zQ6jPz8y-53" vertex="1">
          <mxGeometry width="48" height="33" as="geometry">
            <mxRectangle width="48" height="33" as="alternateBounds" />
          </mxGeometry>
        </mxCell>
        <mxCell id="K9VQBqrEuYd4zQ6jPz8y-55" value="Э1" style="shape=partialRectangle;html=1;whiteSpace=wrap;connectable=0;strokeColor=inherit;overflow=hidden;fillColor=none;top=0;left=0;bottom=0;right=0;pointerEvents=1;fontSize=16;fontFamily=Helvetica;fontColor=default;labelBackgroundColor=default;" parent="K9VQBqrEuYd4zQ6jPz8y-53" vertex="1">
          <mxGeometry x="48" width="47" height="33" as="geometry">
            <mxRectangle width="47" height="33" as="alternateBounds" />
          </mxGeometry>
        </mxCell>
        <mxCell id="K9VQBqrEuYd4zQ6jPz8y-56" value="Э2" style="shape=partialRectangle;html=1;whiteSpace=wrap;connectable=0;strokeColor=inherit;overflow=hidden;fillColor=none;top=0;left=0;bottom=0;right=0;pointerEvents=1;fontSize=16;fontFamily=Helvetica;fontColor=default;labelBackgroundColor=default;" parent="K9VQBqrEuYd4zQ6jPz8y-53" vertex="1">
          <mxGeometry x="95" width="48" height="33" as="geometry">
            <mxRectangle width="48" height="33" as="alternateBounds" />
          </mxGeometry>
        </mxCell>
        <mxCell id="K9VQBqrEuYd4zQ6jPz8y-432" value="Э3" style="shape=partialRectangle;html=1;whiteSpace=wrap;connectable=0;strokeColor=inherit;overflow=hidden;fillColor=none;top=0;left=0;bottom=0;right=0;pointerEvents=1;fontSize=16;fontFamily=Helvetica;fontColor=default;labelBackgroundColor=default;" parent="K9VQBqrEuYd4zQ6jPz8y-53" vertex="1">
          <mxGeometry x="143" width="48" height="33" as="geometry">
            <mxRectangle width="48" height="33" as="alternateBounds" />
          </mxGeometry>
        </mxCell>
        <mxCell id="K9VQBqrEuYd4zQ6jPz8y-438" value="Э4" style="shape=partialRectangle;html=1;whiteSpace=wrap;connectable=0;strokeColor=inherit;overflow=hidden;fillColor=none;top=0;left=0;bottom=0;right=0;pointerEvents=1;fontSize=16;fontFamily=Helvetica;fontColor=default;labelBackgroundColor=default;" parent="K9VQBqrEuYd4zQ6jPz8y-53" vertex="1">
          <mxGeometry x="191" width="48" height="33" as="geometry">
            <mxRectangle width="48" height="33" as="alternateBounds" />
          </mxGeometry>
        </mxCell>
        <mxCell id="K9VQBqrEuYd4zQ6jPz8y-57" value="" style="shape=tableRow;horizontal=0;startSize=0;swimlaneHead=0;swimlaneBody=0;strokeColor=inherit;top=0;left=0;bottom=0;right=0;collapsible=0;dropTarget=0;fillColor=none;points=[[0,0.5],[1,0.5]];portConstraint=eastwest;fontSize=16;fontFamily=Helvetica;fontColor=default;labelBackgroundColor=default;" parent="K9VQBqrEuYd4zQ6jPz8y-52" vertex="1">
          <mxGeometry y="63" width="239" height="34" as="geometry" />
        </mxCell>
        <mxCell id="K9VQBqrEuYd4zQ6jPz8y-58" value="1" style="shape=partialRectangle;html=1;whiteSpace=wrap;connectable=0;strokeColor=inherit;overflow=hidden;fillColor=none;top=0;left=0;bottom=0;right=0;pointerEvents=1;fontSize=16;fontFamily=Helvetica;fontColor=default;labelBackgroundColor=default;" parent="K9VQBqrEuYd4zQ6jPz8y-57" vertex="1">
          <mxGeometry width="48" height="34" as="geometry">
            <mxRectangle width="48" height="34" as="alternateBounds" />
          </mxGeometry>
        </mxCell>
        <mxCell id="K9VQBqrEuYd4zQ6jPz8y-59" value="-" style="shape=partialRectangle;html=1;whiteSpace=wrap;connectable=0;strokeColor=inherit;overflow=hidden;fillColor=none;top=0;left=0;bottom=0;right=0;pointerEvents=1;fontSize=16;fontFamily=Helvetica;fontColor=default;labelBackgroundColor=default;" parent="K9VQBqrEuYd4zQ6jPz8y-57" vertex="1">
          <mxGeometry x="48" width="47" height="34" as="geometry">
            <mxRectangle width="47" height="34" as="alternateBounds" />
          </mxGeometry>
        </mxCell>
        <mxCell id="K9VQBqrEuYd4zQ6jPz8y-60" value="2" style="shape=partialRectangle;html=1;whiteSpace=wrap;connectable=0;strokeColor=inherit;overflow=hidden;fillColor=none;top=0;left=0;bottom=0;right=0;pointerEvents=1;fontSize=16;fontFamily=Helvetica;fontColor=default;labelBackgroundColor=default;" parent="K9VQBqrEuYd4zQ6jPz8y-57" vertex="1">
          <mxGeometry x="95" width="48" height="34" as="geometry">
            <mxRectangle width="48" height="34" as="alternateBounds" />
          </mxGeometry>
        </mxCell>
        <mxCell id="K9VQBqrEuYd4zQ6jPz8y-433" value="-" style="shape=partialRectangle;html=1;whiteSpace=wrap;connectable=0;strokeColor=inherit;overflow=hidden;fillColor=none;top=0;left=0;bottom=0;right=0;pointerEvents=1;fontSize=16;fontFamily=Helvetica;fontColor=default;labelBackgroundColor=default;" parent="K9VQBqrEuYd4zQ6jPz8y-57" vertex="1">
          <mxGeometry x="143" width="48" height="34" as="geometry">
            <mxRectangle width="48" height="34" as="alternateBounds" />
          </mxGeometry>
        </mxCell>
        <mxCell id="K9VQBqrEuYd4zQ6jPz8y-439" value="-" style="shape=partialRectangle;html=1;whiteSpace=wrap;connectable=0;strokeColor=inherit;overflow=hidden;fillColor=none;top=0;left=0;bottom=0;right=0;pointerEvents=1;fontSize=16;fontFamily=Helvetica;fontColor=default;labelBackgroundColor=default;" parent="K9VQBqrEuYd4zQ6jPz8y-57" vertex="1">
          <mxGeometry x="191" width="48" height="34" as="geometry">
            <mxRectangle width="48" height="34" as="alternateBounds" />
          </mxGeometry>
        </mxCell>
        <mxCell id="K9VQBqrEuYd4zQ6jPz8y-61" value="" style="shape=tableRow;horizontal=0;startSize=0;swimlaneHead=0;swimlaneBody=0;strokeColor=inherit;top=0;left=0;bottom=0;right=0;collapsible=0;dropTarget=0;fillColor=none;points=[[0,0.5],[1,0.5]];portConstraint=eastwest;fontSize=16;fontFamily=Helvetica;fontColor=default;labelBackgroundColor=default;" parent="K9VQBqrEuYd4zQ6jPz8y-52" vertex="1">
          <mxGeometry y="97" width="239" height="33" as="geometry" />
        </mxCell>
        <mxCell id="K9VQBqrEuYd4zQ6jPz8y-62" value="2" style="shape=partialRectangle;html=1;whiteSpace=wrap;connectable=0;strokeColor=inherit;overflow=hidden;fillColor=none;top=0;left=0;bottom=0;right=0;pointerEvents=1;fontSize=16;fontFamily=Helvetica;fontColor=default;labelBackgroundColor=default;" parent="K9VQBqrEuYd4zQ6jPz8y-61" vertex="1">
          <mxGeometry width="48" height="33" as="geometry">
            <mxRectangle width="48" height="33" as="alternateBounds" />
          </mxGeometry>
        </mxCell>
        <mxCell id="K9VQBqrEuYd4zQ6jPz8y-63" value="1" style="shape=partialRectangle;html=1;whiteSpace=wrap;connectable=0;strokeColor=inherit;overflow=hidden;fillColor=none;top=0;left=0;bottom=0;right=0;pointerEvents=1;fontSize=16;fontFamily=Helvetica;fontColor=default;labelBackgroundColor=default;" parent="K9VQBqrEuYd4zQ6jPz8y-61" vertex="1">
          <mxGeometry x="48" width="47" height="33" as="geometry">
            <mxRectangle width="47" height="33" as="alternateBounds" />
          </mxGeometry>
        </mxCell>
        <mxCell id="K9VQBqrEuYd4zQ6jPz8y-64" value="-" style="shape=partialRectangle;html=1;whiteSpace=wrap;connectable=0;strokeColor=inherit;overflow=hidden;fillColor=none;top=0;left=0;bottom=0;right=0;pointerEvents=1;fontSize=16;fontFamily=Helvetica;fontColor=default;labelBackgroundColor=default;" parent="K9VQBqrEuYd4zQ6jPz8y-61" vertex="1">
          <mxGeometry x="95" width="48" height="33" as="geometry">
            <mxRectangle width="48" height="33" as="alternateBounds" />
          </mxGeometry>
        </mxCell>
        <mxCell id="K9VQBqrEuYd4zQ6jPz8y-434" value="3" style="shape=partialRectangle;html=1;whiteSpace=wrap;connectable=0;strokeColor=inherit;overflow=hidden;fillColor=none;top=0;left=0;bottom=0;right=0;pointerEvents=1;fontSize=16;fontFamily=Helvetica;fontColor=default;labelBackgroundColor=default;" parent="K9VQBqrEuYd4zQ6jPz8y-61" vertex="1">
          <mxGeometry x="143" width="48" height="33" as="geometry">
            <mxRectangle width="48" height="33" as="alternateBounds" />
          </mxGeometry>
        </mxCell>
        <mxCell id="K9VQBqrEuYd4zQ6jPz8y-440" value="-" style="shape=partialRectangle;html=1;whiteSpace=wrap;connectable=0;strokeColor=inherit;overflow=hidden;fillColor=none;top=0;left=0;bottom=0;right=0;pointerEvents=1;fontSize=16;fontFamily=Helvetica;fontColor=default;labelBackgroundColor=default;" parent="K9VQBqrEuYd4zQ6jPz8y-61" vertex="1">
          <mxGeometry x="191" width="48" height="33" as="geometry">
            <mxRectangle width="48" height="33" as="alternateBounds" />
          </mxGeometry>
        </mxCell>
        <mxCell id="K9VQBqrEuYd4zQ6jPz8y-78" value="" style="shape=tableRow;horizontal=0;startSize=0;swimlaneHead=0;swimlaneBody=0;strokeColor=inherit;top=0;left=0;bottom=0;right=0;collapsible=0;dropTarget=0;fillColor=none;points=[[0,0.5],[1,0.5]];portConstraint=eastwest;fontSize=16;fontFamily=Helvetica;fontColor=default;labelBackgroundColor=default;" parent="K9VQBqrEuYd4zQ6jPz8y-52" vertex="1">
          <mxGeometry y="130" width="239" height="33" as="geometry" />
        </mxCell>
        <mxCell id="K9VQBqrEuYd4zQ6jPz8y-79" value="3" style="shape=partialRectangle;html=1;whiteSpace=wrap;connectable=0;strokeColor=inherit;overflow=hidden;fillColor=none;top=0;left=0;bottom=0;right=0;pointerEvents=1;fontSize=16;fontFamily=Helvetica;fontColor=default;labelBackgroundColor=default;" parent="K9VQBqrEuYd4zQ6jPz8y-78" vertex="1">
          <mxGeometry width="48" height="33" as="geometry">
            <mxRectangle width="48" height="33" as="alternateBounds" />
          </mxGeometry>
        </mxCell>
        <mxCell id="K9VQBqrEuYd4zQ6jPz8y-80" value="1" style="shape=partialRectangle;html=1;whiteSpace=wrap;connectable=0;strokeColor=inherit;overflow=hidden;fillColor=none;top=0;left=0;bottom=0;right=0;pointerEvents=1;fontSize=16;fontFamily=Helvetica;fontColor=default;labelBackgroundColor=default;" parent="K9VQBqrEuYd4zQ6jPz8y-78" vertex="1">
          <mxGeometry x="48" width="47" height="33" as="geometry">
            <mxRectangle width="47" height="33" as="alternateBounds" />
          </mxGeometry>
        </mxCell>
        <mxCell id="K9VQBqrEuYd4zQ6jPz8y-81" value="-" style="shape=partialRectangle;html=1;whiteSpace=wrap;connectable=0;strokeColor=inherit;overflow=hidden;fillColor=none;top=0;left=0;bottom=0;right=0;pointerEvents=1;fontSize=16;fontFamily=Helvetica;fontColor=default;labelBackgroundColor=default;" parent="K9VQBqrEuYd4zQ6jPz8y-78" vertex="1">
          <mxGeometry x="95" width="48" height="33" as="geometry">
            <mxRectangle width="48" height="33" as="alternateBounds" />
          </mxGeometry>
        </mxCell>
        <mxCell id="K9VQBqrEuYd4zQ6jPz8y-435" value="-" style="shape=partialRectangle;html=1;whiteSpace=wrap;connectable=0;strokeColor=inherit;overflow=hidden;fillColor=none;top=0;left=0;bottom=0;right=0;pointerEvents=1;fontSize=16;fontFamily=Helvetica;fontColor=default;labelBackgroundColor=default;" parent="K9VQBqrEuYd4zQ6jPz8y-78" vertex="1">
          <mxGeometry x="143" width="48" height="33" as="geometry">
            <mxRectangle width="48" height="33" as="alternateBounds" />
          </mxGeometry>
        </mxCell>
        <mxCell id="K9VQBqrEuYd4zQ6jPz8y-441" value="2" style="shape=partialRectangle;html=1;whiteSpace=wrap;connectable=0;strokeColor=inherit;overflow=hidden;fillColor=none;top=0;left=0;bottom=0;right=0;pointerEvents=1;fontSize=16;fontFamily=Helvetica;fontColor=default;labelBackgroundColor=default;" parent="K9VQBqrEuYd4zQ6jPz8y-78" vertex="1">
          <mxGeometry x="191" width="48" height="33" as="geometry">
            <mxRectangle width="48" height="33" as="alternateBounds" />
          </mxGeometry>
        </mxCell>
        <mxCell id="BY618IprYTEvmMW9XXkf-1" value="&lt;font style=&quot;font-size: 14px;&quot;&gt;&lt;b&gt;Вилка&lt;/b&gt;&lt;/font&gt;" style="text;html=1;align=center;verticalAlign=middle;resizable=0;points=[];autosize=1;strokeColor=none;fillColor=none;fontFamily=Helvetica;fontSize=11;fontColor=default;labelBackgroundColor=default;" parent="1" vertex="1">
          <mxGeometry x="765" y="88" width="70" height="30" as="geometry" />
        </mxCell>
        <mxCell id="BY618IprYTEvmMW9XXkf-2" value="&lt;div style=&quot;line-height: 160%;&quot;&gt;&lt;span&gt;В1: Отключена от сети&lt;/span&gt;&lt;div&gt;&lt;span&gt;В2: Включена в сеть&lt;/span&gt;&lt;/div&gt;&lt;div&gt;&lt;/div&gt;&lt;/div&gt;" style="text;html=1;align=left;verticalAlign=middle;resizable=0;points=[];autosize=1;fontFamily=Helvetica;fontSize=11;labelBackgroundColor=none;opacity=0;fillColor=none;rounded=0;glass=0;" parent="1" vertex="1">
          <mxGeometry x="970" y="88" width="140" height="50" as="geometry" />
        </mxCell>
        <mxCell id="BY618IprYTEvmMW9XXkf-5" style="edgeStyle=orthogonalEdgeStyle;shape=connector;rounded=0;orthogonalLoop=1;jettySize=auto;html=1;strokeColor=default;align=center;verticalAlign=middle;fontFamily=Helvetica;fontSize=11;fontColor=default;labelBackgroundColor=default;startArrow=none;startFill=0;endArrow=classic;" parent="1" source="BY618IprYTEvmMW9XXkf-3" target="BY618IprYTEvmMW9XXkf-4" edge="1">
          <mxGeometry relative="1" as="geometry">
            <Array as="points">
              <mxPoint x="710" y="140" />
              <mxPoint x="885" y="140" />
            </Array>
          </mxGeometry>
        </mxCell>
        <mxCell id="BY618IprYTEvmMW9XXkf-3" value="1. Отключена от сети" style="html=1;whiteSpace=wrap;fontFamily=Helvetica;fontSize=11;fontColor=default;labelBackgroundColor=default;" parent="1" vertex="1">
          <mxGeometry x="650" y="160" width="130" height="30" as="geometry" />
        </mxCell>
        <mxCell id="BY618IprYTEvmMW9XXkf-7" style="edgeStyle=orthogonalEdgeStyle;shape=connector;rounded=0;orthogonalLoop=1;jettySize=auto;html=1;strokeColor=default;align=center;verticalAlign=middle;fontFamily=Helvetica;fontSize=11;fontColor=default;labelBackgroundColor=default;startArrow=none;startFill=0;endArrow=classic;" parent="1" source="BY618IprYTEvmMW9XXkf-4" target="BY618IprYTEvmMW9XXkf-3" edge="1">
          <mxGeometry relative="1" as="geometry">
            <Array as="points">
              <mxPoint x="885" y="210" />
              <mxPoint x="710" y="210" />
            </Array>
          </mxGeometry>
        </mxCell>
        <mxCell id="BY618IprYTEvmMW9XXkf-4" value="2. Включена в сеть" style="html=1;whiteSpace=wrap;fontFamily=Helvetica;fontSize=11;fontColor=default;labelBackgroundColor=default;" parent="1" vertex="1">
          <mxGeometry x="820" y="160" width="130" height="30" as="geometry" />
        </mxCell>
        <mxCell id="BY618IprYTEvmMW9XXkf-9" style="edgeStyle=orthogonalEdgeStyle;shape=connector;rounded=0;orthogonalLoop=1;jettySize=auto;html=1;strokeColor=default;align=center;verticalAlign=middle;fontFamily=Helvetica;fontSize=11;fontColor=default;labelBackgroundColor=default;startArrow=none;startFill=0;endArrow=classic;" parent="1" target="BY618IprYTEvmMW9XXkf-3" edge="1">
          <mxGeometry relative="1" as="geometry">
            <mxPoint x="690" y="80" as="sourcePoint" />
            <Array as="points">
              <mxPoint x="690" y="80" />
            </Array>
          </mxGeometry>
        </mxCell>
        <mxCell id="BY618IprYTEvmMW9XXkf-10" value="В2" style="text;html=1;align=center;verticalAlign=middle;resizable=0;points=[];autosize=1;strokeColor=none;fillColor=none;fontFamily=Helvetica;fontSize=11;fontColor=default;labelBackgroundColor=default;" parent="1" vertex="1">
          <mxGeometry x="781" y="125" width="40" height="30" as="geometry" />
        </mxCell>
        <mxCell id="BY618IprYTEvmMW9XXkf-11" value="В1" style="text;html=1;align=center;verticalAlign=middle;resizable=0;points=[];autosize=1;strokeColor=none;fillColor=none;fontFamily=Helvetica;fontSize=11;fontColor=default;labelBackgroundColor=default;" parent="1" vertex="1">
          <mxGeometry x="781" y="195" width="40" height="30" as="geometry" />
        </mxCell>
        <mxCell id="BY618IprYTEvmMW9XXkf-12" value="ТПС Вилки" style="shape=table;startSize=30;container=1;collapsible=0;childLayout=tableLayout;strokeColor=default;fontSize=16;fontFamily=Helvetica;fontColor=default;labelBackgroundColor=none;" parent="1" vertex="1">
          <mxGeometry x="970" y="160" width="130" height="130" as="geometry" />
        </mxCell>
        <mxCell id="BY618IprYTEvmMW9XXkf-13" value="" style="shape=tableRow;horizontal=0;startSize=0;swimlaneHead=0;swimlaneBody=0;strokeColor=inherit;top=0;left=0;bottom=0;right=0;collapsible=0;dropTarget=0;fillColor=none;points=[[0,0.5],[1,0.5]];portConstraint=eastwest;fontSize=16;fontFamily=Helvetica;fontColor=default;labelBackgroundColor=default;" parent="BY618IprYTEvmMW9XXkf-12" vertex="1">
          <mxGeometry y="30" width="130" height="33" as="geometry" />
        </mxCell>
        <mxCell id="BY618IprYTEvmMW9XXkf-14" value="№" style="shape=partialRectangle;html=1;whiteSpace=wrap;connectable=0;strokeColor=inherit;overflow=hidden;fillColor=none;top=0;left=0;bottom=0;right=0;pointerEvents=1;fontSize=16;fontFamily=Helvetica;fontColor=default;labelBackgroundColor=default;" parent="BY618IprYTEvmMW9XXkf-13" vertex="1">
          <mxGeometry width="44" height="33" as="geometry">
            <mxRectangle width="44" height="33" as="alternateBounds" />
          </mxGeometry>
        </mxCell>
        <mxCell id="BY618IprYTEvmMW9XXkf-15" value="В1" style="shape=partialRectangle;html=1;whiteSpace=wrap;connectable=0;strokeColor=inherit;overflow=hidden;fillColor=none;top=0;left=0;bottom=0;right=0;pointerEvents=1;fontSize=16;fontFamily=Helvetica;fontColor=default;labelBackgroundColor=default;" parent="BY618IprYTEvmMW9XXkf-13" vertex="1">
          <mxGeometry x="44" width="42" height="33" as="geometry">
            <mxRectangle width="42" height="33" as="alternateBounds" />
          </mxGeometry>
        </mxCell>
        <mxCell id="BY618IprYTEvmMW9XXkf-16" value="В2" style="shape=partialRectangle;html=1;whiteSpace=wrap;connectable=0;strokeColor=inherit;overflow=hidden;fillColor=none;top=0;left=0;bottom=0;right=0;pointerEvents=1;fontSize=16;fontFamily=Helvetica;fontColor=default;labelBackgroundColor=default;" parent="BY618IprYTEvmMW9XXkf-13" vertex="1">
          <mxGeometry x="86" width="44" height="33" as="geometry">
            <mxRectangle width="44" height="33" as="alternateBounds" />
          </mxGeometry>
        </mxCell>
        <mxCell id="BY618IprYTEvmMW9XXkf-23" value="" style="shape=tableRow;horizontal=0;startSize=0;swimlaneHead=0;swimlaneBody=0;strokeColor=inherit;top=0;left=0;bottom=0;right=0;collapsible=0;dropTarget=0;fillColor=none;points=[[0,0.5],[1,0.5]];portConstraint=eastwest;fontSize=16;fontFamily=Helvetica;fontColor=default;labelBackgroundColor=default;" parent="BY618IprYTEvmMW9XXkf-12" vertex="1">
          <mxGeometry y="63" width="130" height="34" as="geometry" />
        </mxCell>
        <mxCell id="BY618IprYTEvmMW9XXkf-24" value="1" style="shape=partialRectangle;html=1;whiteSpace=wrap;connectable=0;strokeColor=inherit;overflow=hidden;fillColor=none;top=0;left=0;bottom=0;right=0;pointerEvents=1;fontSize=16;fontFamily=Helvetica;fontColor=default;labelBackgroundColor=default;" parent="BY618IprYTEvmMW9XXkf-23" vertex="1">
          <mxGeometry width="44" height="34" as="geometry">
            <mxRectangle width="44" height="34" as="alternateBounds" />
          </mxGeometry>
        </mxCell>
        <mxCell id="BY618IprYTEvmMW9XXkf-25" value="-" style="shape=partialRectangle;html=1;whiteSpace=wrap;connectable=0;strokeColor=inherit;overflow=hidden;fillColor=none;top=0;left=0;bottom=0;right=0;pointerEvents=1;fontSize=16;fontFamily=Helvetica;fontColor=default;labelBackgroundColor=default;" parent="BY618IprYTEvmMW9XXkf-23" vertex="1">
          <mxGeometry x="44" width="42" height="34" as="geometry">
            <mxRectangle width="42" height="34" as="alternateBounds" />
          </mxGeometry>
        </mxCell>
        <mxCell id="BY618IprYTEvmMW9XXkf-26" value="2" style="shape=partialRectangle;html=1;whiteSpace=wrap;connectable=0;strokeColor=inherit;overflow=hidden;fillColor=none;top=0;left=0;bottom=0;right=0;pointerEvents=1;fontSize=16;fontFamily=Helvetica;fontColor=default;labelBackgroundColor=default;" parent="BY618IprYTEvmMW9XXkf-23" vertex="1">
          <mxGeometry x="86" width="44" height="34" as="geometry">
            <mxRectangle width="44" height="34" as="alternateBounds" />
          </mxGeometry>
        </mxCell>
        <mxCell id="BY618IprYTEvmMW9XXkf-33" value="" style="shape=tableRow;horizontal=0;startSize=0;swimlaneHead=0;swimlaneBody=0;strokeColor=inherit;top=0;left=0;bottom=0;right=0;collapsible=0;dropTarget=0;fillColor=none;points=[[0,0.5],[1,0.5]];portConstraint=eastwest;fontSize=16;fontFamily=Helvetica;fontColor=default;labelBackgroundColor=default;" parent="BY618IprYTEvmMW9XXkf-12" vertex="1">
          <mxGeometry y="97" width="130" height="33" as="geometry" />
        </mxCell>
        <mxCell id="BY618IprYTEvmMW9XXkf-34" value="2" style="shape=partialRectangle;html=1;whiteSpace=wrap;connectable=0;strokeColor=inherit;overflow=hidden;fillColor=none;top=0;left=0;bottom=0;right=0;pointerEvents=1;fontSize=16;fontFamily=Helvetica;fontColor=default;labelBackgroundColor=default;" parent="BY618IprYTEvmMW9XXkf-33" vertex="1">
          <mxGeometry width="44" height="33" as="geometry">
            <mxRectangle width="44" height="33" as="alternateBounds" />
          </mxGeometry>
        </mxCell>
        <mxCell id="BY618IprYTEvmMW9XXkf-35" value="1" style="shape=partialRectangle;html=1;whiteSpace=wrap;connectable=0;strokeColor=inherit;overflow=hidden;fillColor=none;top=0;left=0;bottom=0;right=0;pointerEvents=1;fontSize=16;fontFamily=Helvetica;fontColor=default;labelBackgroundColor=default;" parent="BY618IprYTEvmMW9XXkf-33" vertex="1">
          <mxGeometry x="44" width="42" height="33" as="geometry">
            <mxRectangle width="42" height="33" as="alternateBounds" />
          </mxGeometry>
        </mxCell>
        <mxCell id="BY618IprYTEvmMW9XXkf-36" value="-" style="shape=partialRectangle;html=1;whiteSpace=wrap;connectable=0;strokeColor=inherit;overflow=hidden;fillColor=none;top=0;left=0;bottom=0;right=0;pointerEvents=1;fontSize=16;fontFamily=Helvetica;fontColor=default;labelBackgroundColor=default;" parent="BY618IprYTEvmMW9XXkf-33" vertex="1">
          <mxGeometry x="86" width="44" height="33" as="geometry">
            <mxRectangle width="44" height="33" as="alternateBounds" />
          </mxGeometry>
        </mxCell>
        <mxCell id="8Xx779jEErWnjmO_PWKF-1" value="&lt;span style=&quot;font-size: 14px;&quot;&gt;&lt;b&gt;Переключатель нагрева&lt;/b&gt;&lt;/span&gt;" style="text;html=1;align=center;verticalAlign=middle;resizable=0;points=[];autosize=1;strokeColor=none;fillColor=none;fontFamily=Helvetica;fontSize=11;fontColor=default;labelBackgroundColor=default;" parent="1" vertex="1">
          <mxGeometry x="635" y="358" width="190" height="30" as="geometry" />
        </mxCell>
        <mxCell id="8Xx779jEErWnjmO_PWKF-2" value="&lt;div style=&quot;line-height: 160%;&quot;&gt;&lt;span&gt;ПН1: Переключатель включен&lt;/span&gt;&lt;div&gt;&lt;span&gt;ПН2: Переключатель выключен&lt;/span&gt;&lt;/div&gt;&lt;div&gt;&lt;/div&gt;&lt;/div&gt;" style="text;html=1;align=left;verticalAlign=middle;resizable=0;points=[];autosize=1;fontFamily=Helvetica;fontSize=11;labelBackgroundColor=none;opacity=0;fillColor=none;rounded=0;glass=0;" parent="1" vertex="1">
          <mxGeometry x="900" y="358" width="190" height="50" as="geometry" />
        </mxCell>
        <mxCell id="8Xx779jEErWnjmO_PWKF-3" style="edgeStyle=orthogonalEdgeStyle;shape=connector;rounded=0;orthogonalLoop=1;jettySize=auto;html=1;strokeColor=default;align=center;verticalAlign=middle;fontFamily=Helvetica;fontSize=11;fontColor=default;labelBackgroundColor=default;startArrow=none;startFill=0;endArrow=classic;" parent="1" source="8Xx779jEErWnjmO_PWKF-4" target="8Xx779jEErWnjmO_PWKF-6" edge="1">
          <mxGeometry relative="1" as="geometry">
            <Array as="points">
              <mxPoint x="640" y="410" />
              <mxPoint x="815" y="410" />
            </Array>
          </mxGeometry>
        </mxCell>
        <mxCell id="8Xx779jEErWnjmO_PWKF-4" value="1. Нагрев отключен" style="html=1;whiteSpace=wrap;fontFamily=Helvetica;fontSize=11;fontColor=default;labelBackgroundColor=default;" parent="1" vertex="1">
          <mxGeometry x="580" y="430" width="130" height="30" as="geometry" />
        </mxCell>
        <mxCell id="8Xx779jEErWnjmO_PWKF-5" style="edgeStyle=orthogonalEdgeStyle;shape=connector;rounded=0;orthogonalLoop=1;jettySize=auto;html=1;strokeColor=default;align=center;verticalAlign=middle;fontFamily=Helvetica;fontSize=11;fontColor=default;labelBackgroundColor=default;startArrow=none;startFill=0;endArrow=classic;" parent="1" source="8Xx779jEErWnjmO_PWKF-6" target="8Xx779jEErWnjmO_PWKF-4" edge="1">
          <mxGeometry relative="1" as="geometry">
            <Array as="points">
              <mxPoint x="815" y="480" />
              <mxPoint x="640" y="480" />
            </Array>
          </mxGeometry>
        </mxCell>
        <mxCell id="8Xx779jEErWnjmO_PWKF-6" value="2. Нагрев включен" style="html=1;whiteSpace=wrap;fontFamily=Helvetica;fontSize=11;fontColor=default;labelBackgroundColor=default;" parent="1" vertex="1">
          <mxGeometry x="750" y="430" width="130" height="30" as="geometry" />
        </mxCell>
        <mxCell id="8Xx779jEErWnjmO_PWKF-7" style="edgeStyle=orthogonalEdgeStyle;shape=connector;rounded=0;orthogonalLoop=1;jettySize=auto;html=1;strokeColor=default;align=center;verticalAlign=middle;fontFamily=Helvetica;fontSize=11;fontColor=default;labelBackgroundColor=default;startArrow=none;startFill=0;endArrow=classic;" parent="1" target="8Xx779jEErWnjmO_PWKF-4" edge="1">
          <mxGeometry relative="1" as="geometry">
            <mxPoint x="620" y="350" as="sourcePoint" />
            <Array as="points">
              <mxPoint x="620" y="350" />
            </Array>
          </mxGeometry>
        </mxCell>
        <mxCell id="8Xx779jEErWnjmO_PWKF-8" value="ПН2" style="text;html=1;align=center;verticalAlign=middle;resizable=0;points=[];autosize=1;strokeColor=none;fillColor=none;fontFamily=Helvetica;fontSize=11;fontColor=default;labelBackgroundColor=default;" parent="1" vertex="1">
          <mxGeometry x="706" y="395" width="50" height="30" as="geometry" />
        </mxCell>
        <mxCell id="8Xx779jEErWnjmO_PWKF-9" value="ПН1" style="text;html=1;align=center;verticalAlign=middle;resizable=0;points=[];autosize=1;strokeColor=none;fillColor=none;fontFamily=Helvetica;fontSize=11;fontColor=default;labelBackgroundColor=default;" parent="1" vertex="1">
          <mxGeometry x="706" y="465" width="50" height="30" as="geometry" />
        </mxCell>
        <mxCell id="8Xx779jEErWnjmO_PWKF-10" value="ТПС Переключателя нагрева" style="shape=table;startSize=30;container=1;collapsible=0;childLayout=tableLayout;strokeColor=default;fontSize=16;fontFamily=Helvetica;fontColor=default;labelBackgroundColor=none;" parent="1" vertex="1">
          <mxGeometry x="900" y="430" width="250" height="130" as="geometry" />
        </mxCell>
        <mxCell id="8Xx779jEErWnjmO_PWKF-11" value="" style="shape=tableRow;horizontal=0;startSize=0;swimlaneHead=0;swimlaneBody=0;strokeColor=inherit;top=0;left=0;bottom=0;right=0;collapsible=0;dropTarget=0;fillColor=none;points=[[0,0.5],[1,0.5]];portConstraint=eastwest;fontSize=16;fontFamily=Helvetica;fontColor=default;labelBackgroundColor=default;" parent="8Xx779jEErWnjmO_PWKF-10" vertex="1">
          <mxGeometry y="30" width="250" height="33" as="geometry" />
        </mxCell>
        <mxCell id="8Xx779jEErWnjmO_PWKF-12" value="№" style="shape=partialRectangle;html=1;whiteSpace=wrap;connectable=0;strokeColor=inherit;overflow=hidden;fillColor=none;top=0;left=0;bottom=0;right=0;pointerEvents=1;fontSize=16;fontFamily=Helvetica;fontColor=default;labelBackgroundColor=default;" parent="8Xx779jEErWnjmO_PWKF-11" vertex="1">
          <mxGeometry width="84" height="33" as="geometry">
            <mxRectangle width="84" height="33" as="alternateBounds" />
          </mxGeometry>
        </mxCell>
        <mxCell id="8Xx779jEErWnjmO_PWKF-13" value="ПН1" style="shape=partialRectangle;html=1;whiteSpace=wrap;connectable=0;strokeColor=inherit;overflow=hidden;fillColor=none;top=0;left=0;bottom=0;right=0;pointerEvents=1;fontSize=16;fontFamily=Helvetica;fontColor=default;labelBackgroundColor=default;" parent="8Xx779jEErWnjmO_PWKF-11" vertex="1">
          <mxGeometry x="84" width="82" height="33" as="geometry">
            <mxRectangle width="82" height="33" as="alternateBounds" />
          </mxGeometry>
        </mxCell>
        <mxCell id="8Xx779jEErWnjmO_PWKF-14" value="ПН2" style="shape=partialRectangle;html=1;whiteSpace=wrap;connectable=0;strokeColor=inherit;overflow=hidden;fillColor=none;top=0;left=0;bottom=0;right=0;pointerEvents=1;fontSize=16;fontFamily=Helvetica;fontColor=default;labelBackgroundColor=default;" parent="8Xx779jEErWnjmO_PWKF-11" vertex="1">
          <mxGeometry x="166" width="84" height="33" as="geometry">
            <mxRectangle width="84" height="33" as="alternateBounds" />
          </mxGeometry>
        </mxCell>
        <mxCell id="8Xx779jEErWnjmO_PWKF-15" value="" style="shape=tableRow;horizontal=0;startSize=0;swimlaneHead=0;swimlaneBody=0;strokeColor=inherit;top=0;left=0;bottom=0;right=0;collapsible=0;dropTarget=0;fillColor=none;points=[[0,0.5],[1,0.5]];portConstraint=eastwest;fontSize=16;fontFamily=Helvetica;fontColor=default;labelBackgroundColor=default;" parent="8Xx779jEErWnjmO_PWKF-10" vertex="1">
          <mxGeometry y="63" width="250" height="35" as="geometry" />
        </mxCell>
        <mxCell id="8Xx779jEErWnjmO_PWKF-16" value="1" style="shape=partialRectangle;html=1;whiteSpace=wrap;connectable=0;strokeColor=inherit;overflow=hidden;fillColor=none;top=0;left=0;bottom=0;right=0;pointerEvents=1;fontSize=16;fontFamily=Helvetica;fontColor=default;labelBackgroundColor=default;" parent="8Xx779jEErWnjmO_PWKF-15" vertex="1">
          <mxGeometry width="84" height="35" as="geometry">
            <mxRectangle width="84" height="35" as="alternateBounds" />
          </mxGeometry>
        </mxCell>
        <mxCell id="8Xx779jEErWnjmO_PWKF-17" value="-" style="shape=partialRectangle;html=1;whiteSpace=wrap;connectable=0;strokeColor=inherit;overflow=hidden;fillColor=none;top=0;left=0;bottom=0;right=0;pointerEvents=1;fontSize=16;fontFamily=Helvetica;fontColor=default;labelBackgroundColor=default;" parent="8Xx779jEErWnjmO_PWKF-15" vertex="1">
          <mxGeometry x="84" width="82" height="35" as="geometry">
            <mxRectangle width="82" height="35" as="alternateBounds" />
          </mxGeometry>
        </mxCell>
        <mxCell id="8Xx779jEErWnjmO_PWKF-18" value="2" style="shape=partialRectangle;html=1;whiteSpace=wrap;connectable=0;strokeColor=inherit;overflow=hidden;fillColor=none;top=0;left=0;bottom=0;right=0;pointerEvents=1;fontSize=16;fontFamily=Helvetica;fontColor=default;labelBackgroundColor=default;" parent="8Xx779jEErWnjmO_PWKF-15" vertex="1">
          <mxGeometry x="166" width="84" height="35" as="geometry">
            <mxRectangle width="84" height="35" as="alternateBounds" />
          </mxGeometry>
        </mxCell>
        <mxCell id="8Xx779jEErWnjmO_PWKF-19" value="" style="shape=tableRow;horizontal=0;startSize=0;swimlaneHead=0;swimlaneBody=0;strokeColor=inherit;top=0;left=0;bottom=0;right=0;collapsible=0;dropTarget=0;fillColor=none;points=[[0,0.5],[1,0.5]];portConstraint=eastwest;fontSize=16;fontFamily=Helvetica;fontColor=default;labelBackgroundColor=default;" parent="8Xx779jEErWnjmO_PWKF-10" vertex="1">
          <mxGeometry y="98" width="250" height="32" as="geometry" />
        </mxCell>
        <mxCell id="8Xx779jEErWnjmO_PWKF-20" value="2" style="shape=partialRectangle;html=1;whiteSpace=wrap;connectable=0;strokeColor=inherit;overflow=hidden;fillColor=none;top=0;left=0;bottom=0;right=0;pointerEvents=1;fontSize=16;fontFamily=Helvetica;fontColor=default;labelBackgroundColor=default;" parent="8Xx779jEErWnjmO_PWKF-19" vertex="1">
          <mxGeometry width="84" height="32" as="geometry">
            <mxRectangle width="84" height="32" as="alternateBounds" />
          </mxGeometry>
        </mxCell>
        <mxCell id="8Xx779jEErWnjmO_PWKF-21" value="1" style="shape=partialRectangle;html=1;whiteSpace=wrap;connectable=0;strokeColor=inherit;overflow=hidden;fillColor=none;top=0;left=0;bottom=0;right=0;pointerEvents=1;fontSize=16;fontFamily=Helvetica;fontColor=default;labelBackgroundColor=default;" parent="8Xx779jEErWnjmO_PWKF-19" vertex="1">
          <mxGeometry x="84" width="82" height="32" as="geometry">
            <mxRectangle width="82" height="32" as="alternateBounds" />
          </mxGeometry>
        </mxCell>
        <mxCell id="8Xx779jEErWnjmO_PWKF-22" value="-" style="shape=partialRectangle;html=1;whiteSpace=wrap;connectable=0;strokeColor=inherit;overflow=hidden;fillColor=none;top=0;left=0;bottom=0;right=0;pointerEvents=1;fontSize=16;fontFamily=Helvetica;fontColor=default;labelBackgroundColor=default;" parent="8Xx779jEErWnjmO_PWKF-19" vertex="1">
          <mxGeometry x="166" width="84" height="32" as="geometry">
            <mxRectangle width="84" height="32" as="alternateBounds" />
          </mxGeometry>
        </mxCell>
        <mxCell id="riMHNvHj5c_UJ0_NwRnd-1" value="&lt;font style=&quot;font-size: 14px;&quot;&gt;&lt;b&gt;Световой индикатор работы&lt;/b&gt;&lt;/font&gt;" style="text;html=1;align=center;verticalAlign=middle;resizable=0;points=[];autosize=1;strokeColor=none;fillColor=none;fontFamily=Helvetica;fontSize=11;fontColor=default;labelBackgroundColor=default;" parent="1" vertex="1">
          <mxGeometry x="60" y="598" width="220" height="30" as="geometry" />
        </mxCell>
        <mxCell id="riMHNvHj5c_UJ0_NwRnd-2" value="&lt;div style=&quot;line-height: 160%;&quot;&gt;&lt;span&gt;СИР1: Выключить световой индикатор работы&lt;/span&gt;&lt;div&gt;&lt;span&gt;СИР2:&amp;nbsp;&lt;/span&gt;&lt;span style=&quot;background-color: transparent; color: light-dark(rgb(0, 0, 0), rgb(255, 255, 255));&quot;&gt;Включить световой индикатор работы&lt;/span&gt;&lt;/div&gt;&lt;div&gt;&lt;/div&gt;&lt;/div&gt;" style="text;html=1;align=left;verticalAlign=middle;resizable=0;points=[];autosize=1;fontFamily=Helvetica;fontSize=11;labelBackgroundColor=none;opacity=0;fillColor=none;rounded=0;glass=0;" parent="1" vertex="1">
          <mxGeometry x="330" y="608" width="260" height="50" as="geometry" />
        </mxCell>
        <mxCell id="riMHNvHj5c_UJ0_NwRnd-3" style="edgeStyle=orthogonalEdgeStyle;shape=connector;rounded=0;orthogonalLoop=1;jettySize=auto;html=1;strokeColor=default;align=center;verticalAlign=middle;fontFamily=Helvetica;fontSize=11;fontColor=default;labelBackgroundColor=default;startArrow=none;startFill=0;endArrow=classic;" parent="1" target="riMHNvHj5c_UJ0_NwRnd-6" edge="1">
          <mxGeometry relative="1" as="geometry">
            <Array as="points">
              <mxPoint x="80" y="650" />
              <mxPoint x="255" y="650" />
            </Array>
            <mxPoint x="80" y="670" as="sourcePoint" />
          </mxGeometry>
        </mxCell>
        <mxCell id="riMHNvHj5c_UJ0_NwRnd-4" value="1. Отключен" style="html=1;whiteSpace=wrap;fontFamily=Helvetica;fontSize=11;fontColor=default;labelBackgroundColor=default;" parent="1" vertex="1">
          <mxGeometry x="20" y="670" width="130" height="30" as="geometry" />
        </mxCell>
        <mxCell id="riMHNvHj5c_UJ0_NwRnd-5" style="edgeStyle=orthogonalEdgeStyle;shape=connector;rounded=0;orthogonalLoop=1;jettySize=auto;html=1;strokeColor=default;align=center;verticalAlign=middle;fontFamily=Helvetica;fontSize=11;fontColor=default;labelBackgroundColor=default;startArrow=none;startFill=0;endArrow=classic;" parent="1" source="riMHNvHj5c_UJ0_NwRnd-6" edge="1">
          <mxGeometry relative="1" as="geometry">
            <Array as="points">
              <mxPoint x="255" y="720" />
              <mxPoint x="80" y="720" />
            </Array>
            <mxPoint x="80" y="700" as="targetPoint" />
          </mxGeometry>
        </mxCell>
        <mxCell id="riMHNvHj5c_UJ0_NwRnd-6" value="2. Включен" style="html=1;whiteSpace=wrap;fontFamily=Helvetica;fontSize=11;fontColor=default;labelBackgroundColor=default;" parent="1" vertex="1">
          <mxGeometry x="190" y="670" width="130" height="30" as="geometry" />
        </mxCell>
        <mxCell id="riMHNvHj5c_UJ0_NwRnd-7" style="edgeStyle=orthogonalEdgeStyle;shape=connector;rounded=0;orthogonalLoop=1;jettySize=auto;html=1;strokeColor=default;align=center;verticalAlign=middle;fontFamily=Helvetica;fontSize=11;fontColor=default;labelBackgroundColor=default;startArrow=none;startFill=0;endArrow=classic;" parent="1" edge="1">
          <mxGeometry relative="1" as="geometry">
            <mxPoint x="60" y="590" as="sourcePoint" />
            <Array as="points">
              <mxPoint x="60" y="590" />
            </Array>
            <mxPoint x="60" y="670" as="targetPoint" />
          </mxGeometry>
        </mxCell>
        <mxCell id="riMHNvHj5c_UJ0_NwRnd-8" value="СИР2" style="text;html=1;align=center;verticalAlign=middle;resizable=0;points=[];autosize=1;strokeColor=none;fillColor=none;fontFamily=Helvetica;fontSize=11;fontColor=default;labelBackgroundColor=default;" parent="1" vertex="1">
          <mxGeometry x="146" y="635" width="50" height="30" as="geometry" />
        </mxCell>
        <mxCell id="riMHNvHj5c_UJ0_NwRnd-9" value="СИР1" style="text;html=1;align=center;verticalAlign=middle;resizable=0;points=[];autosize=1;strokeColor=none;fillColor=none;fontFamily=Helvetica;fontSize=11;fontColor=default;labelBackgroundColor=default;" parent="1" vertex="1">
          <mxGeometry x="146" y="705" width="50" height="30" as="geometry" />
        </mxCell>
        <mxCell id="riMHNvHj5c_UJ0_NwRnd-10" value="ТПС Светового индикатора&#xa;работы" style="shape=table;startSize=50;container=1;collapsible=0;childLayout=tableLayout;strokeColor=default;fontSize=16;fontFamily=Helvetica;fontColor=default;labelBackgroundColor=none;" parent="1" vertex="1">
          <mxGeometry x="340" y="670" width="220" height="130" as="geometry" />
        </mxCell>
        <mxCell id="riMHNvHj5c_UJ0_NwRnd-11" value="" style="shape=tableRow;horizontal=0;startSize=0;swimlaneHead=0;swimlaneBody=0;strokeColor=inherit;top=0;left=0;bottom=0;right=0;collapsible=0;dropTarget=0;fillColor=none;points=[[0,0.5],[1,0.5]];portConstraint=eastwest;fontSize=16;fontFamily=Helvetica;fontColor=default;labelBackgroundColor=default;" parent="riMHNvHj5c_UJ0_NwRnd-10" vertex="1">
          <mxGeometry y="50" width="220" height="26" as="geometry" />
        </mxCell>
        <mxCell id="riMHNvHj5c_UJ0_NwRnd-12" value="№" style="shape=partialRectangle;html=1;whiteSpace=wrap;connectable=0;strokeColor=inherit;overflow=hidden;fillColor=none;top=0;left=0;bottom=0;right=0;pointerEvents=1;fontSize=16;fontFamily=Helvetica;fontColor=default;labelBackgroundColor=default;" parent="riMHNvHj5c_UJ0_NwRnd-11" vertex="1">
          <mxGeometry width="73" height="26" as="geometry">
            <mxRectangle width="73" height="26" as="alternateBounds" />
          </mxGeometry>
        </mxCell>
        <mxCell id="riMHNvHj5c_UJ0_NwRnd-13" value="СИР1" style="shape=partialRectangle;html=1;whiteSpace=wrap;connectable=0;strokeColor=inherit;overflow=hidden;fillColor=none;top=0;left=0;bottom=0;right=0;pointerEvents=1;fontSize=16;fontFamily=Helvetica;fontColor=default;labelBackgroundColor=default;" parent="riMHNvHj5c_UJ0_NwRnd-11" vertex="1">
          <mxGeometry x="73" width="74" height="26" as="geometry">
            <mxRectangle width="74" height="26" as="alternateBounds" />
          </mxGeometry>
        </mxCell>
        <mxCell id="riMHNvHj5c_UJ0_NwRnd-14" value="СИР2" style="shape=partialRectangle;html=1;whiteSpace=wrap;connectable=0;strokeColor=inherit;overflow=hidden;fillColor=none;top=0;left=0;bottom=0;right=0;pointerEvents=1;fontSize=16;fontFamily=Helvetica;fontColor=default;labelBackgroundColor=default;" parent="riMHNvHj5c_UJ0_NwRnd-11" vertex="1">
          <mxGeometry x="147" width="73" height="26" as="geometry">
            <mxRectangle width="73" height="26" as="alternateBounds" />
          </mxGeometry>
        </mxCell>
        <mxCell id="riMHNvHj5c_UJ0_NwRnd-15" value="" style="shape=tableRow;horizontal=0;startSize=0;swimlaneHead=0;swimlaneBody=0;strokeColor=inherit;top=0;left=0;bottom=0;right=0;collapsible=0;dropTarget=0;fillColor=none;points=[[0,0.5],[1,0.5]];portConstraint=eastwest;fontSize=16;fontFamily=Helvetica;fontColor=default;labelBackgroundColor=default;" parent="riMHNvHj5c_UJ0_NwRnd-10" vertex="1">
          <mxGeometry y="76" width="220" height="28" as="geometry" />
        </mxCell>
        <mxCell id="riMHNvHj5c_UJ0_NwRnd-16" value="1" style="shape=partialRectangle;html=1;whiteSpace=wrap;connectable=0;strokeColor=inherit;overflow=hidden;fillColor=none;top=0;left=0;bottom=0;right=0;pointerEvents=1;fontSize=16;fontFamily=Helvetica;fontColor=default;labelBackgroundColor=default;" parent="riMHNvHj5c_UJ0_NwRnd-15" vertex="1">
          <mxGeometry width="73" height="28" as="geometry">
            <mxRectangle width="73" height="28" as="alternateBounds" />
          </mxGeometry>
        </mxCell>
        <mxCell id="riMHNvHj5c_UJ0_NwRnd-17" value="-" style="shape=partialRectangle;html=1;whiteSpace=wrap;connectable=0;strokeColor=inherit;overflow=hidden;fillColor=none;top=0;left=0;bottom=0;right=0;pointerEvents=1;fontSize=16;fontFamily=Helvetica;fontColor=default;labelBackgroundColor=default;" parent="riMHNvHj5c_UJ0_NwRnd-15" vertex="1">
          <mxGeometry x="73" width="74" height="28" as="geometry">
            <mxRectangle width="74" height="28" as="alternateBounds" />
          </mxGeometry>
        </mxCell>
        <mxCell id="riMHNvHj5c_UJ0_NwRnd-18" value="2" style="shape=partialRectangle;html=1;whiteSpace=wrap;connectable=0;strokeColor=inherit;overflow=hidden;fillColor=none;top=0;left=0;bottom=0;right=0;pointerEvents=1;fontSize=16;fontFamily=Helvetica;fontColor=default;labelBackgroundColor=default;" parent="riMHNvHj5c_UJ0_NwRnd-15" vertex="1">
          <mxGeometry x="147" width="73" height="28" as="geometry">
            <mxRectangle width="73" height="28" as="alternateBounds" />
          </mxGeometry>
        </mxCell>
        <mxCell id="riMHNvHj5c_UJ0_NwRnd-19" value="" style="shape=tableRow;horizontal=0;startSize=0;swimlaneHead=0;swimlaneBody=0;strokeColor=inherit;top=0;left=0;bottom=0;right=0;collapsible=0;dropTarget=0;fillColor=none;points=[[0,0.5],[1,0.5]];portConstraint=eastwest;fontSize=16;fontFamily=Helvetica;fontColor=default;labelBackgroundColor=default;" parent="riMHNvHj5c_UJ0_NwRnd-10" vertex="1">
          <mxGeometry y="104" width="220" height="26" as="geometry" />
        </mxCell>
        <mxCell id="riMHNvHj5c_UJ0_NwRnd-20" value="2" style="shape=partialRectangle;html=1;whiteSpace=wrap;connectable=0;strokeColor=inherit;overflow=hidden;fillColor=none;top=0;left=0;bottom=0;right=0;pointerEvents=1;fontSize=16;fontFamily=Helvetica;fontColor=default;labelBackgroundColor=default;" parent="riMHNvHj5c_UJ0_NwRnd-19" vertex="1">
          <mxGeometry width="73" height="26" as="geometry">
            <mxRectangle width="73" height="26" as="alternateBounds" />
          </mxGeometry>
        </mxCell>
        <mxCell id="riMHNvHj5c_UJ0_NwRnd-21" value="1" style="shape=partialRectangle;html=1;whiteSpace=wrap;connectable=0;strokeColor=inherit;overflow=hidden;fillColor=none;top=0;left=0;bottom=0;right=0;pointerEvents=1;fontSize=16;fontFamily=Helvetica;fontColor=default;labelBackgroundColor=default;" parent="riMHNvHj5c_UJ0_NwRnd-19" vertex="1">
          <mxGeometry x="73" width="74" height="26" as="geometry">
            <mxRectangle width="74" height="26" as="alternateBounds" />
          </mxGeometry>
        </mxCell>
        <mxCell id="riMHNvHj5c_UJ0_NwRnd-22" value="-" style="shape=partialRectangle;html=1;whiteSpace=wrap;connectable=0;strokeColor=inherit;overflow=hidden;fillColor=none;top=0;left=0;bottom=0;right=0;pointerEvents=1;fontSize=16;fontFamily=Helvetica;fontColor=default;labelBackgroundColor=default;" parent="riMHNvHj5c_UJ0_NwRnd-19" vertex="1">
          <mxGeometry x="147" width="73" height="26" as="geometry">
            <mxRectangle width="73" height="26" as="alternateBounds" />
          </mxGeometry>
        </mxCell>
        <mxCell id="Q72AznBNJXh9C2B_cLxb-44" value="&lt;span style=&quot;font-size: 14px;&quot;&gt;&lt;b&gt;Нагревательный элемент&lt;/b&gt;&lt;/span&gt;" style="text;html=1;align=center;verticalAlign=middle;resizable=0;points=[];autosize=1;strokeColor=none;fillColor=none;fontFamily=Helvetica;fontSize=11;fontColor=default;labelBackgroundColor=default;" parent="1" vertex="1">
          <mxGeometry x="630" y="598" width="200" height="30" as="geometry" />
        </mxCell>
        <mxCell id="Q72AznBNJXh9C2B_cLxb-45" value="&lt;div style=&quot;line-height: 160%;&quot;&gt;&lt;span&gt;НЭ1: Выключить нагрев&lt;/span&gt;&lt;div&gt;&lt;span&gt;НЭ2: Включить нагрев&amp;nbsp;&lt;/span&gt;&lt;/div&gt;&lt;div&gt;&lt;/div&gt;&lt;/div&gt;" style="text;html=1;align=left;verticalAlign=middle;resizable=0;points=[];autosize=1;fontFamily=Helvetica;fontSize=11;labelBackgroundColor=none;opacity=0;fillColor=none;rounded=0;glass=0;" parent="1" vertex="1">
          <mxGeometry x="900" y="598" width="150" height="50" as="geometry" />
        </mxCell>
        <mxCell id="Q72AznBNJXh9C2B_cLxb-46" style="edgeStyle=orthogonalEdgeStyle;shape=connector;rounded=0;orthogonalLoop=1;jettySize=auto;html=1;strokeColor=default;align=center;verticalAlign=middle;fontFamily=Helvetica;fontSize=11;fontColor=default;labelBackgroundColor=default;startArrow=none;startFill=0;endArrow=classic;" parent="1" source="Q72AznBNJXh9C2B_cLxb-47" target="Q72AznBNJXh9C2B_cLxb-49" edge="1">
          <mxGeometry relative="1" as="geometry">
            <Array as="points">
              <mxPoint x="640" y="650" />
              <mxPoint x="815" y="650" />
            </Array>
          </mxGeometry>
        </mxCell>
        <mxCell id="Q72AznBNJXh9C2B_cLxb-47" value="1. Отключен" style="html=1;whiteSpace=wrap;fontFamily=Helvetica;fontSize=11;fontColor=default;labelBackgroundColor=default;" parent="1" vertex="1">
          <mxGeometry x="580" y="670" width="130" height="30" as="geometry" />
        </mxCell>
        <mxCell id="Q72AznBNJXh9C2B_cLxb-48" style="edgeStyle=orthogonalEdgeStyle;shape=connector;rounded=0;orthogonalLoop=1;jettySize=auto;html=1;strokeColor=default;align=center;verticalAlign=middle;fontFamily=Helvetica;fontSize=11;fontColor=default;labelBackgroundColor=default;startArrow=none;startFill=0;endArrow=classic;" parent="1" source="Q72AznBNJXh9C2B_cLxb-49" target="Q72AznBNJXh9C2B_cLxb-47" edge="1">
          <mxGeometry relative="1" as="geometry">
            <Array as="points">
              <mxPoint x="815" y="720" />
              <mxPoint x="640" y="720" />
            </Array>
          </mxGeometry>
        </mxCell>
        <mxCell id="Q72AznBNJXh9C2B_cLxb-49" value="2. Включен" style="html=1;whiteSpace=wrap;fontFamily=Helvetica;fontSize=11;fontColor=default;labelBackgroundColor=default;" parent="1" vertex="1">
          <mxGeometry x="750" y="670" width="130" height="30" as="geometry" />
        </mxCell>
        <mxCell id="Q72AznBNJXh9C2B_cLxb-50" style="edgeStyle=orthogonalEdgeStyle;shape=connector;rounded=0;orthogonalLoop=1;jettySize=auto;html=1;strokeColor=default;align=center;verticalAlign=middle;fontFamily=Helvetica;fontSize=11;fontColor=default;labelBackgroundColor=default;startArrow=none;startFill=0;endArrow=classic;" parent="1" target="Q72AznBNJXh9C2B_cLxb-47" edge="1">
          <mxGeometry relative="1" as="geometry">
            <mxPoint x="620" y="590" as="sourcePoint" />
            <Array as="points">
              <mxPoint x="620" y="590" />
            </Array>
          </mxGeometry>
        </mxCell>
        <mxCell id="Q72AznBNJXh9C2B_cLxb-51" value="НЭ2" style="text;html=1;align=center;verticalAlign=middle;resizable=0;points=[];autosize=1;strokeColor=none;fillColor=none;fontFamily=Helvetica;fontSize=11;fontColor=default;labelBackgroundColor=default;" parent="1" vertex="1">
          <mxGeometry x="706" y="635" width="50" height="30" as="geometry" />
        </mxCell>
        <mxCell id="Q72AznBNJXh9C2B_cLxb-52" value="НЭ1" style="text;html=1;align=center;verticalAlign=middle;resizable=0;points=[];autosize=1;strokeColor=none;fillColor=none;fontFamily=Helvetica;fontSize=11;fontColor=default;labelBackgroundColor=default;" parent="1" vertex="1">
          <mxGeometry x="706" y="705" width="50" height="30" as="geometry" />
        </mxCell>
        <mxCell id="Q72AznBNJXh9C2B_cLxb-53" value="ТПС Нагревательного элемента" style="shape=table;startSize=30;container=1;collapsible=0;childLayout=tableLayout;strokeColor=default;fontSize=16;fontFamily=Helvetica;fontColor=default;labelBackgroundColor=none;" parent="1" vertex="1">
          <mxGeometry x="900" y="670" width="250" height="130" as="geometry" />
        </mxCell>
        <mxCell id="Q72AznBNJXh9C2B_cLxb-54" value="" style="shape=tableRow;horizontal=0;startSize=0;swimlaneHead=0;swimlaneBody=0;strokeColor=inherit;top=0;left=0;bottom=0;right=0;collapsible=0;dropTarget=0;fillColor=none;points=[[0,0.5],[1,0.5]];portConstraint=eastwest;fontSize=16;fontFamily=Helvetica;fontColor=default;labelBackgroundColor=default;" parent="Q72AznBNJXh9C2B_cLxb-53" vertex="1">
          <mxGeometry y="30" width="250" height="33" as="geometry" />
        </mxCell>
        <mxCell id="Q72AznBNJXh9C2B_cLxb-55" value="№" style="shape=partialRectangle;html=1;whiteSpace=wrap;connectable=0;strokeColor=inherit;overflow=hidden;fillColor=none;top=0;left=0;bottom=0;right=0;pointerEvents=1;fontSize=16;fontFamily=Helvetica;fontColor=default;labelBackgroundColor=default;" parent="Q72AznBNJXh9C2B_cLxb-54" vertex="1">
          <mxGeometry width="83" height="33" as="geometry">
            <mxRectangle width="83" height="33" as="alternateBounds" />
          </mxGeometry>
        </mxCell>
        <mxCell id="Q72AznBNJXh9C2B_cLxb-56" value="НЭ1" style="shape=partialRectangle;html=1;whiteSpace=wrap;connectable=0;strokeColor=inherit;overflow=hidden;fillColor=none;top=0;left=0;bottom=0;right=0;pointerEvents=1;fontSize=16;fontFamily=Helvetica;fontColor=default;labelBackgroundColor=default;" parent="Q72AznBNJXh9C2B_cLxb-54" vertex="1">
          <mxGeometry x="83" width="84" height="33" as="geometry">
            <mxRectangle width="84" height="33" as="alternateBounds" />
          </mxGeometry>
        </mxCell>
        <mxCell id="Q72AznBNJXh9C2B_cLxb-57" value="НЭ2" style="shape=partialRectangle;html=1;whiteSpace=wrap;connectable=0;strokeColor=inherit;overflow=hidden;fillColor=none;top=0;left=0;bottom=0;right=0;pointerEvents=1;fontSize=16;fontFamily=Helvetica;fontColor=default;labelBackgroundColor=default;" parent="Q72AznBNJXh9C2B_cLxb-54" vertex="1">
          <mxGeometry x="167" width="83" height="33" as="geometry">
            <mxRectangle width="83" height="33" as="alternateBounds" />
          </mxGeometry>
        </mxCell>
        <mxCell id="Q72AznBNJXh9C2B_cLxb-58" value="" style="shape=tableRow;horizontal=0;startSize=0;swimlaneHead=0;swimlaneBody=0;strokeColor=inherit;top=0;left=0;bottom=0;right=0;collapsible=0;dropTarget=0;fillColor=none;points=[[0,0.5],[1,0.5]];portConstraint=eastwest;fontSize=16;fontFamily=Helvetica;fontColor=default;labelBackgroundColor=default;" parent="Q72AznBNJXh9C2B_cLxb-53" vertex="1">
          <mxGeometry y="63" width="250" height="34" as="geometry" />
        </mxCell>
        <mxCell id="Q72AznBNJXh9C2B_cLxb-59" value="1" style="shape=partialRectangle;html=1;whiteSpace=wrap;connectable=0;strokeColor=inherit;overflow=hidden;fillColor=none;top=0;left=0;bottom=0;right=0;pointerEvents=1;fontSize=16;fontFamily=Helvetica;fontColor=default;labelBackgroundColor=default;" parent="Q72AznBNJXh9C2B_cLxb-58" vertex="1">
          <mxGeometry width="83" height="34" as="geometry">
            <mxRectangle width="83" height="34" as="alternateBounds" />
          </mxGeometry>
        </mxCell>
        <mxCell id="Q72AznBNJXh9C2B_cLxb-60" value="-" style="shape=partialRectangle;html=1;whiteSpace=wrap;connectable=0;strokeColor=inherit;overflow=hidden;fillColor=none;top=0;left=0;bottom=0;right=0;pointerEvents=1;fontSize=16;fontFamily=Helvetica;fontColor=default;labelBackgroundColor=default;" parent="Q72AznBNJXh9C2B_cLxb-58" vertex="1">
          <mxGeometry x="83" width="84" height="34" as="geometry">
            <mxRectangle width="84" height="34" as="alternateBounds" />
          </mxGeometry>
        </mxCell>
        <mxCell id="Q72AznBNJXh9C2B_cLxb-61" value="2" style="shape=partialRectangle;html=1;whiteSpace=wrap;connectable=0;strokeColor=inherit;overflow=hidden;fillColor=none;top=0;left=0;bottom=0;right=0;pointerEvents=1;fontSize=16;fontFamily=Helvetica;fontColor=default;labelBackgroundColor=default;" parent="Q72AznBNJXh9C2B_cLxb-58" vertex="1">
          <mxGeometry x="167" width="83" height="34" as="geometry">
            <mxRectangle width="83" height="34" as="alternateBounds" />
          </mxGeometry>
        </mxCell>
        <mxCell id="Q72AznBNJXh9C2B_cLxb-62" value="" style="shape=tableRow;horizontal=0;startSize=0;swimlaneHead=0;swimlaneBody=0;strokeColor=inherit;top=0;left=0;bottom=0;right=0;collapsible=0;dropTarget=0;fillColor=none;points=[[0,0.5],[1,0.5]];portConstraint=eastwest;fontSize=16;fontFamily=Helvetica;fontColor=default;labelBackgroundColor=default;" parent="Q72AznBNJXh9C2B_cLxb-53" vertex="1">
          <mxGeometry y="97" width="250" height="33" as="geometry" />
        </mxCell>
        <mxCell id="Q72AznBNJXh9C2B_cLxb-63" value="2" style="shape=partialRectangle;html=1;whiteSpace=wrap;connectable=0;strokeColor=inherit;overflow=hidden;fillColor=none;top=0;left=0;bottom=0;right=0;pointerEvents=1;fontSize=16;fontFamily=Helvetica;fontColor=default;labelBackgroundColor=default;" parent="Q72AznBNJXh9C2B_cLxb-62" vertex="1">
          <mxGeometry width="83" height="33" as="geometry">
            <mxRectangle width="83" height="33" as="alternateBounds" />
          </mxGeometry>
        </mxCell>
        <mxCell id="Q72AznBNJXh9C2B_cLxb-64" value="1" style="shape=partialRectangle;html=1;whiteSpace=wrap;connectable=0;strokeColor=inherit;overflow=hidden;fillColor=none;top=0;left=0;bottom=0;right=0;pointerEvents=1;fontSize=16;fontFamily=Helvetica;fontColor=default;labelBackgroundColor=default;" parent="Q72AznBNJXh9C2B_cLxb-62" vertex="1">
          <mxGeometry x="83" width="84" height="33" as="geometry">
            <mxRectangle width="84" height="33" as="alternateBounds" />
          </mxGeometry>
        </mxCell>
        <mxCell id="Q72AznBNJXh9C2B_cLxb-65" value="-" style="shape=partialRectangle;html=1;whiteSpace=wrap;connectable=0;strokeColor=inherit;overflow=hidden;fillColor=none;top=0;left=0;bottom=0;right=0;pointerEvents=1;fontSize=16;fontFamily=Helvetica;fontColor=default;labelBackgroundColor=default;" parent="Q72AznBNJXh9C2B_cLxb-62" vertex="1">
          <mxGeometry x="167" width="83" height="33" as="geometry">
            <mxRectangle width="83" height="33" as="alternateBounds" />
          </mxGeometry>
        </mxCell>
        <mxCell id="9QpgvQCh8sdaBDVkwrHl-9" value="Э1" style="text;html=1;align=center;verticalAlign=middle;resizable=0;points=[];autosize=1;strokeColor=none;fillColor=none;fontFamily=Helvetica;fontSize=11;fontColor=default;labelBackgroundColor=default;" parent="1" vertex="1">
          <mxGeometry x="197" y="170" width="40" height="30" as="geometry" />
        </mxCell>
        <mxCell id="9QpgvQCh8sdaBDVkwrHl-12" value="Э3" style="text;html=1;align=center;verticalAlign=middle;resizable=0;points=[];autosize=1;strokeColor=none;fillColor=none;fontFamily=Helvetica;fontSize=11;fontColor=default;labelBackgroundColor=default;" parent="1" vertex="1">
          <mxGeometry x="131" y="275" width="40" height="30" as="geometry" />
        </mxCell>
        <mxCell id="9QpgvQCh8sdaBDVkwrHl-13" value="Э4" style="text;html=1;align=center;verticalAlign=middle;resizable=0;points=[];autosize=1;strokeColor=none;fillColor=none;fontFamily=Helvetica;fontSize=11;fontColor=default;labelBackgroundColor=default;" parent="1" vertex="1">
          <mxGeometry x="196" y="275" width="40" height="30" as="geometry" />
        </mxCell>
        <mxCell id="WBTwikh0Lq7fNHrLzFYW-1" value="&lt;font style=&quot;font-size: 14px;&quot;&gt;&lt;b&gt;Световой индикатор нагрева&lt;/b&gt;&lt;/font&gt;" style="text;html=1;align=center;verticalAlign=middle;resizable=0;points=[];autosize=1;strokeColor=none;fillColor=none;fontFamily=Helvetica;fontSize=11;fontColor=default;labelBackgroundColor=default;" parent="1" vertex="1">
          <mxGeometry x="55" y="388" width="230" height="30" as="geometry" />
        </mxCell>
        <mxCell id="WBTwikh0Lq7fNHrLzFYW-2" value="&lt;div style=&quot;line-height: 160%;&quot;&gt;&lt;span&gt;СИН1: Выключить световой индикатор нагрева&lt;/span&gt;&lt;div&gt;&lt;span&gt;СИН2:&amp;nbsp;&lt;/span&gt;&lt;span style=&quot;background-color: transparent; color: light-dark(rgb(0, 0, 0), rgb(255, 255, 255));&quot;&gt;Включить световой индикатор нагрева&lt;/span&gt;&lt;/div&gt;&lt;div&gt;&lt;/div&gt;&lt;/div&gt;" style="text;html=1;align=left;verticalAlign=middle;resizable=0;points=[];autosize=1;fontFamily=Helvetica;fontSize=11;labelBackgroundColor=none;opacity=0;fillColor=none;rounded=0;glass=0;" parent="1" vertex="1">
          <mxGeometry x="330" y="388" width="270" height="50" as="geometry" />
        </mxCell>
        <mxCell id="WBTwikh0Lq7fNHrLzFYW-3" style="edgeStyle=orthogonalEdgeStyle;shape=connector;rounded=0;orthogonalLoop=1;jettySize=auto;html=1;strokeColor=default;align=center;verticalAlign=middle;fontFamily=Helvetica;fontSize=11;fontColor=default;labelBackgroundColor=default;startArrow=none;startFill=0;endArrow=classic;" parent="1" target="WBTwikh0Lq7fNHrLzFYW-6" edge="1">
          <mxGeometry relative="1" as="geometry">
            <Array as="points">
              <mxPoint x="80" y="440" />
              <mxPoint x="255" y="440" />
            </Array>
            <mxPoint x="80" y="460" as="sourcePoint" />
          </mxGeometry>
        </mxCell>
        <mxCell id="WBTwikh0Lq7fNHrLzFYW-4" value="1. Отключен" style="html=1;whiteSpace=wrap;fontFamily=Helvetica;fontSize=11;fontColor=default;labelBackgroundColor=default;" parent="1" vertex="1">
          <mxGeometry x="20" y="460" width="130" height="30" as="geometry" />
        </mxCell>
        <mxCell id="WBTwikh0Lq7fNHrLzFYW-5" style="edgeStyle=orthogonalEdgeStyle;shape=connector;rounded=0;orthogonalLoop=1;jettySize=auto;html=1;strokeColor=default;align=center;verticalAlign=middle;fontFamily=Helvetica;fontSize=11;fontColor=default;labelBackgroundColor=default;startArrow=none;startFill=0;endArrow=classic;" parent="1" source="WBTwikh0Lq7fNHrLzFYW-6" edge="1">
          <mxGeometry relative="1" as="geometry">
            <Array as="points">
              <mxPoint x="255" y="510" />
              <mxPoint x="80" y="510" />
            </Array>
            <mxPoint x="80" y="490" as="targetPoint" />
          </mxGeometry>
        </mxCell>
        <mxCell id="WBTwikh0Lq7fNHrLzFYW-6" value="2. Включен" style="html=1;whiteSpace=wrap;fontFamily=Helvetica;fontSize=11;fontColor=default;labelBackgroundColor=default;" parent="1" vertex="1">
          <mxGeometry x="190" y="460" width="130" height="30" as="geometry" />
        </mxCell>
        <mxCell id="WBTwikh0Lq7fNHrLzFYW-7" style="edgeStyle=orthogonalEdgeStyle;shape=connector;rounded=0;orthogonalLoop=1;jettySize=auto;html=1;strokeColor=default;align=center;verticalAlign=middle;fontFamily=Helvetica;fontSize=11;fontColor=default;labelBackgroundColor=default;startArrow=none;startFill=0;endArrow=classic;" parent="1" edge="1">
          <mxGeometry relative="1" as="geometry">
            <mxPoint x="60" y="380" as="sourcePoint" />
            <Array as="points">
              <mxPoint x="60" y="380" />
            </Array>
            <mxPoint x="60" y="460" as="targetPoint" />
          </mxGeometry>
        </mxCell>
        <mxCell id="WBTwikh0Lq7fNHrLzFYW-8" value="СИН2" style="text;html=1;align=center;verticalAlign=middle;resizable=0;points=[];autosize=1;strokeColor=none;fillColor=none;fontFamily=Helvetica;fontSize=11;fontColor=default;labelBackgroundColor=default;" parent="1" vertex="1">
          <mxGeometry x="146" y="425" width="50" height="30" as="geometry" />
        </mxCell>
        <mxCell id="WBTwikh0Lq7fNHrLzFYW-9" value="СИН1" style="text;html=1;align=center;verticalAlign=middle;resizable=0;points=[];autosize=1;strokeColor=none;fillColor=none;fontFamily=Helvetica;fontSize=11;fontColor=default;labelBackgroundColor=default;" parent="1" vertex="1">
          <mxGeometry x="146" y="495" width="50" height="30" as="geometry" />
        </mxCell>
        <mxCell id="WBTwikh0Lq7fNHrLzFYW-10" value="ТПС Светового индикатора &#xa;нагрева" style="shape=table;startSize=50;container=1;collapsible=0;childLayout=tableLayout;strokeColor=default;fontSize=16;fontFamily=Helvetica;fontColor=default;labelBackgroundColor=none;" parent="1" vertex="1">
          <mxGeometry x="340" y="460" width="220" height="130" as="geometry" />
        </mxCell>
        <mxCell id="WBTwikh0Lq7fNHrLzFYW-11" value="" style="shape=tableRow;horizontal=0;startSize=0;swimlaneHead=0;swimlaneBody=0;strokeColor=inherit;top=0;left=0;bottom=0;right=0;collapsible=0;dropTarget=0;fillColor=none;points=[[0,0.5],[1,0.5]];portConstraint=eastwest;fontSize=16;fontFamily=Helvetica;fontColor=default;labelBackgroundColor=default;" parent="WBTwikh0Lq7fNHrLzFYW-10" vertex="1">
          <mxGeometry y="50" width="220" height="27" as="geometry" />
        </mxCell>
        <mxCell id="WBTwikh0Lq7fNHrLzFYW-12" value="№" style="shape=partialRectangle;html=1;whiteSpace=wrap;connectable=0;strokeColor=inherit;overflow=hidden;fillColor=none;top=0;left=0;bottom=0;right=0;pointerEvents=1;fontSize=16;fontFamily=Helvetica;fontColor=default;labelBackgroundColor=default;" parent="WBTwikh0Lq7fNHrLzFYW-11" vertex="1">
          <mxGeometry width="73" height="27" as="geometry">
            <mxRectangle width="73" height="27" as="alternateBounds" />
          </mxGeometry>
        </mxCell>
        <mxCell id="WBTwikh0Lq7fNHrLzFYW-13" value="СИН1" style="shape=partialRectangle;html=1;whiteSpace=wrap;connectable=0;strokeColor=inherit;overflow=hidden;fillColor=none;top=0;left=0;bottom=0;right=0;pointerEvents=1;fontSize=16;fontFamily=Helvetica;fontColor=default;labelBackgroundColor=default;" parent="WBTwikh0Lq7fNHrLzFYW-11" vertex="1">
          <mxGeometry x="73" width="74" height="27" as="geometry">
            <mxRectangle width="74" height="27" as="alternateBounds" />
          </mxGeometry>
        </mxCell>
        <mxCell id="WBTwikh0Lq7fNHrLzFYW-14" value="СИН2" style="shape=partialRectangle;html=1;whiteSpace=wrap;connectable=0;strokeColor=inherit;overflow=hidden;fillColor=none;top=0;left=0;bottom=0;right=0;pointerEvents=1;fontSize=16;fontFamily=Helvetica;fontColor=default;labelBackgroundColor=default;" parent="WBTwikh0Lq7fNHrLzFYW-11" vertex="1">
          <mxGeometry x="147" width="73" height="27" as="geometry">
            <mxRectangle width="73" height="27" as="alternateBounds" />
          </mxGeometry>
        </mxCell>
        <mxCell id="WBTwikh0Lq7fNHrLzFYW-15" value="" style="shape=tableRow;horizontal=0;startSize=0;swimlaneHead=0;swimlaneBody=0;strokeColor=inherit;top=0;left=0;bottom=0;right=0;collapsible=0;dropTarget=0;fillColor=none;points=[[0,0.5],[1,0.5]];portConstraint=eastwest;fontSize=16;fontFamily=Helvetica;fontColor=default;labelBackgroundColor=default;" parent="WBTwikh0Lq7fNHrLzFYW-10" vertex="1">
          <mxGeometry y="77" width="220" height="26" as="geometry" />
        </mxCell>
        <mxCell id="WBTwikh0Lq7fNHrLzFYW-16" value="1" style="shape=partialRectangle;html=1;whiteSpace=wrap;connectable=0;strokeColor=inherit;overflow=hidden;fillColor=none;top=0;left=0;bottom=0;right=0;pointerEvents=1;fontSize=16;fontFamily=Helvetica;fontColor=default;labelBackgroundColor=default;" parent="WBTwikh0Lq7fNHrLzFYW-15" vertex="1">
          <mxGeometry width="73" height="26" as="geometry">
            <mxRectangle width="73" height="26" as="alternateBounds" />
          </mxGeometry>
        </mxCell>
        <mxCell id="WBTwikh0Lq7fNHrLzFYW-17" value="-" style="shape=partialRectangle;html=1;whiteSpace=wrap;connectable=0;strokeColor=inherit;overflow=hidden;fillColor=none;top=0;left=0;bottom=0;right=0;pointerEvents=1;fontSize=16;fontFamily=Helvetica;fontColor=default;labelBackgroundColor=default;" parent="WBTwikh0Lq7fNHrLzFYW-15" vertex="1">
          <mxGeometry x="73" width="74" height="26" as="geometry">
            <mxRectangle width="74" height="26" as="alternateBounds" />
          </mxGeometry>
        </mxCell>
        <mxCell id="WBTwikh0Lq7fNHrLzFYW-18" value="2" style="shape=partialRectangle;html=1;whiteSpace=wrap;connectable=0;strokeColor=inherit;overflow=hidden;fillColor=none;top=0;left=0;bottom=0;right=0;pointerEvents=1;fontSize=16;fontFamily=Helvetica;fontColor=default;labelBackgroundColor=default;" parent="WBTwikh0Lq7fNHrLzFYW-15" vertex="1">
          <mxGeometry x="147" width="73" height="26" as="geometry">
            <mxRectangle width="73" height="26" as="alternateBounds" />
          </mxGeometry>
        </mxCell>
        <mxCell id="WBTwikh0Lq7fNHrLzFYW-19" value="" style="shape=tableRow;horizontal=0;startSize=0;swimlaneHead=0;swimlaneBody=0;strokeColor=inherit;top=0;left=0;bottom=0;right=0;collapsible=0;dropTarget=0;fillColor=none;points=[[0,0.5],[1,0.5]];portConstraint=eastwest;fontSize=16;fontFamily=Helvetica;fontColor=default;labelBackgroundColor=default;" parent="WBTwikh0Lq7fNHrLzFYW-10" vertex="1">
          <mxGeometry y="103" width="220" height="27" as="geometry" />
        </mxCell>
        <mxCell id="WBTwikh0Lq7fNHrLzFYW-20" value="2" style="shape=partialRectangle;html=1;whiteSpace=wrap;connectable=0;strokeColor=inherit;overflow=hidden;fillColor=none;top=0;left=0;bottom=0;right=0;pointerEvents=1;fontSize=16;fontFamily=Helvetica;fontColor=default;labelBackgroundColor=default;" parent="WBTwikh0Lq7fNHrLzFYW-19" vertex="1">
          <mxGeometry width="73" height="27" as="geometry">
            <mxRectangle width="73" height="27" as="alternateBounds" />
          </mxGeometry>
        </mxCell>
        <mxCell id="WBTwikh0Lq7fNHrLzFYW-21" value="1" style="shape=partialRectangle;html=1;whiteSpace=wrap;connectable=0;strokeColor=inherit;overflow=hidden;fillColor=none;top=0;left=0;bottom=0;right=0;pointerEvents=1;fontSize=16;fontFamily=Helvetica;fontColor=default;labelBackgroundColor=default;" parent="WBTwikh0Lq7fNHrLzFYW-19" vertex="1">
          <mxGeometry x="73" width="74" height="27" as="geometry">
            <mxRectangle width="74" height="27" as="alternateBounds" />
          </mxGeometry>
        </mxCell>
        <mxCell id="WBTwikh0Lq7fNHrLzFYW-22" value="-" style="shape=partialRectangle;html=1;whiteSpace=wrap;connectable=0;strokeColor=inherit;overflow=hidden;fillColor=none;top=0;left=0;bottom=0;right=0;pointerEvents=1;fontSize=16;fontFamily=Helvetica;fontColor=default;labelBackgroundColor=default;" parent="WBTwikh0Lq7fNHrLzFYW-19" vertex="1">
          <mxGeometry x="147" width="73" height="27" as="geometry">
            <mxRectangle width="73" height="27" as="alternateBounds" />
          </mxGeometry>
        </mxCell>
      </root>
    </mxGraphModel>
  </diagram>
  <diagram id="L7DBPixgLdCOAmiGW0N6" name="МВО">
    <mxGraphModel dx="1683" dy="691" grid="1" gridSize="10" guides="1" tooltips="1" connect="1" arrows="1" fold="1" page="1" pageScale="1" pageWidth="827" pageHeight="583" math="0" shadow="0">
      <root>
        <mxCell id="0" />
        <mxCell id="1" parent="0" />
        <mxCell id="Dr3B8tO7ZUSSoenf9ySC-1" style="edgeStyle=orthogonalEdgeStyle;shape=connector;rounded=0;orthogonalLoop=1;jettySize=auto;html=1;strokeColor=default;align=center;verticalAlign=middle;fontFamily=Helvetica;fontSize=11;fontColor=default;labelBackgroundColor=default;startArrow=none;startFill=0;endArrow=classic;" parent="1" source="lkSJc1tTXsYvu2vdAiYt-1" target="lkSJc1tTXsYvu2vdAiYt-4" edge="1">
          <mxGeometry relative="1" as="geometry" />
        </mxCell>
        <mxCell id="1F69C0Zi0EZWTii6JiMH-1" style="edgeStyle=orthogonalEdgeStyle;rounded=0;orthogonalLoop=1;jettySize=auto;html=1;entryX=0.5;entryY=1;entryDx=0;entryDy=0;" edge="1" parent="1" source="lkSJc1tTXsYvu2vdAiYt-1" target="lkSJc1tTXsYvu2vdAiYt-3">
          <mxGeometry relative="1" as="geometry" />
        </mxCell>
        <mxCell id="lkSJc1tTXsYvu2vdAiYt-1" value="Пользователь" style="html=1;whiteSpace=wrap;fontFamily=Helvetica;fontSize=14;fontColor=default;labelBackgroundColor=default;" parent="1" vertex="1">
          <mxGeometry x="248" y="410" width="110" height="50" as="geometry" />
        </mxCell>
        <mxCell id="YDmoA2-JbEkkCKlQ30nq-1" style="edgeStyle=orthogonalEdgeStyle;shape=connector;rounded=0;orthogonalLoop=1;jettySize=auto;html=1;strokeColor=default;align=center;verticalAlign=middle;fontFamily=Helvetica;fontSize=11;fontColor=default;labelBackgroundColor=default;startArrow=none;startFill=0;endArrow=classic;" parent="1" source="lkSJc1tTXsYvu2vdAiYt-3" target="dZYrgQBcRjrYWuilN-pc-1" edge="1">
          <mxGeometry relative="1" as="geometry">
            <Array as="points">
              <mxPoint x="390" y="180" />
              <mxPoint x="304" y="180" />
            </Array>
          </mxGeometry>
        </mxCell>
        <mxCell id="lkSJc1tTXsYvu2vdAiYt-3" value="Переключатель&amp;nbsp;&lt;div&gt;нагрева (ПН)&lt;/div&gt;" style="ellipse;whiteSpace=wrap;html=1;fontFamily=Helvetica;fontSize=14;fontColor=default;labelBackgroundColor=default;" parent="1" vertex="1">
          <mxGeometry x="324" y="270" width="119" height="80" as="geometry" />
        </mxCell>
        <mxCell id="Ize2A4QLB7NZV2ai8r_J-1" style="edgeStyle=orthogonalEdgeStyle;shape=connector;rounded=0;orthogonalLoop=1;jettySize=auto;html=1;strokeColor=default;align=center;verticalAlign=middle;fontFamily=Helvetica;fontSize=11;fontColor=default;labelBackgroundColor=default;startArrow=none;startFill=0;endArrow=classic;" parent="1" source="lkSJc1tTXsYvu2vdAiYt-4" target="dZYrgQBcRjrYWuilN-pc-1" edge="1">
          <mxGeometry relative="1" as="geometry">
            <Array as="points">
              <mxPoint x="193" y="180" />
              <mxPoint x="304" y="180" />
            </Array>
          </mxGeometry>
        </mxCell>
        <mxCell id="lkSJc1tTXsYvu2vdAiYt-4" value="Вилка (В)" style="ellipse;whiteSpace=wrap;html=1;fontFamily=Helvetica;fontSize=14;fontColor=default;labelBackgroundColor=default;" parent="1" vertex="1">
          <mxGeometry x="153" y="270" width="120" height="80" as="geometry" />
        </mxCell>
        <mxCell id="Dr3B8tO7ZUSSoenf9ySC-2" value="В1, В2" style="text;html=1;align=center;verticalAlign=middle;resizable=0;points=[];autosize=1;strokeColor=none;fillColor=none;fontFamily=Helvetica;fontSize=11;fontColor=default;labelBackgroundColor=default;" parent="1" vertex="1">
          <mxGeometry x="223" y="366" width="60" height="30" as="geometry" />
        </mxCell>
        <mxCell id="Tmep54vgFMO19iRC3GJv-1" value="ПН1, ПН2" style="text;html=1;align=center;verticalAlign=middle;resizable=0;points=[];autosize=1;strokeColor=none;fillColor=none;fontFamily=Helvetica;fontSize=11;fontColor=default;labelBackgroundColor=default;" parent="1" vertex="1">
          <mxGeometry x="308" y="366" width="70" height="30" as="geometry" />
        </mxCell>
        <mxCell id="t7OXvTcyeldUeoIGj1hC-1" style="edgeStyle=orthogonalEdgeStyle;shape=connector;rounded=0;orthogonalLoop=1;jettySize=auto;html=1;strokeColor=default;align=center;verticalAlign=middle;fontFamily=Helvetica;fontSize=11;fontColor=default;labelBackgroundColor=default;startArrow=none;startFill=0;endArrow=classic;" parent="1" source="dZYrgQBcRjrYWuilN-pc-1" target="dZYrgQBcRjrYWuilN-pc-4" edge="1">
          <mxGeometry relative="1" as="geometry" />
        </mxCell>
        <mxCell id="y6ojL3StZLxN1gYD9_mO-1" style="edgeStyle=orthogonalEdgeStyle;rounded=0;orthogonalLoop=1;jettySize=auto;html=1;" parent="1" source="dZYrgQBcRjrYWuilN-pc-1" target="dZYrgQBcRjrYWuilN-pc-3" edge="1">
          <mxGeometry relative="1" as="geometry" />
        </mxCell>
        <mxCell id="hLDd-4b4gPHfVmoSh9ut-2" style="edgeStyle=orthogonalEdgeStyle;rounded=0;orthogonalLoop=1;jettySize=auto;html=1;" edge="1" parent="1" source="dZYrgQBcRjrYWuilN-pc-1" target="hLDd-4b4gPHfVmoSh9ut-1">
          <mxGeometry relative="1" as="geometry" />
        </mxCell>
        <mxCell id="dZYrgQBcRjrYWuilN-pc-1" value="Электрообогреватель&lt;div&gt;(Э)&lt;/div&gt;" style="ellipse;whiteSpace=wrap;html=1;fontFamily=Helvetica;fontSize=14;fontColor=default;labelBackgroundColor=default;" parent="1" vertex="1">
          <mxGeometry x="222" y="58" width="163" height="80" as="geometry" />
        </mxCell>
        <mxCell id="dZYrgQBcRjrYWuilN-pc-3" value="Нагревательный&lt;div&gt;элемент (НЭ)&lt;/div&gt;" style="ellipse;whiteSpace=wrap;html=1;fontFamily=Helvetica;fontSize=14;fontColor=default;labelBackgroundColor=default;" parent="1" vertex="1">
          <mxGeometry x="20" y="270" width="120" height="80" as="geometry" />
        </mxCell>
        <mxCell id="dZYrgQBcRjrYWuilN-pc-4" value="Световой&lt;div&gt;индикатор работы (СИР)&lt;/div&gt;" style="ellipse;whiteSpace=wrap;html=1;fontFamily=Helvetica;fontSize=14;fontColor=default;labelBackgroundColor=default;" parent="1" vertex="1">
          <mxGeometry x="450" y="270" width="180" height="80" as="geometry" />
        </mxCell>
        <mxCell id="Ize2A4QLB7NZV2ai8r_J-2" value="Э1, Э2" style="text;html=1;align=center;verticalAlign=middle;resizable=0;points=[];autosize=1;strokeColor=none;fillColor=none;fontFamily=Helvetica;fontSize=11;fontColor=default;labelBackgroundColor=default;" parent="1" vertex="1">
          <mxGeometry x="163" y="200" width="60" height="30" as="geometry" />
        </mxCell>
        <mxCell id="YDmoA2-JbEkkCKlQ30nq-2" value="Э3, Э4" style="text;html=1;align=center;verticalAlign=middle;resizable=0;points=[];autosize=1;strokeColor=none;fillColor=none;fontFamily=Helvetica;fontSize=11;fontColor=default;labelBackgroundColor=default;" parent="1" vertex="1">
          <mxGeometry x="358" y="200" width="60" height="30" as="geometry" />
        </mxCell>
        <mxCell id="jgMNuaYtj9-TxrrlvaEa-1" value="СИР1, СИР2" style="text;html=1;align=center;verticalAlign=middle;resizable=0;points=[];autosize=1;strokeColor=none;fillColor=none;fontFamily=Helvetica;fontSize=11;fontColor=default;labelBackgroundColor=default;" parent="1" vertex="1">
          <mxGeometry x="494" y="170" width="90" height="30" as="geometry" />
        </mxCell>
        <mxCell id="y6ojL3StZLxN1gYD9_mO-3" value="НЭ1, НЭ2" style="text;html=1;align=center;verticalAlign=middle;resizable=0;points=[];autosize=1;strokeColor=none;fillColor=none;fontFamily=Helvetica;fontSize=11;fontColor=default;labelBackgroundColor=default;" parent="1" vertex="1">
          <mxGeometry x="43" y="171" width="70" height="30" as="geometry" />
        </mxCell>
        <mxCell id="hLDd-4b4gPHfVmoSh9ut-1" value="Световой&lt;div&gt;индикатор нагрева(СИН)&lt;/div&gt;" style="ellipse;whiteSpace=wrap;html=1;fontFamily=Helvetica;fontSize=14;fontColor=default;labelBackgroundColor=default;" vertex="1" parent="1">
          <mxGeometry x="640" y="270" width="180" height="80" as="geometry" />
        </mxCell>
        <mxCell id="hLDd-4b4gPHfVmoSh9ut-3" value="СИН1, СИН2" style="text;html=1;align=center;verticalAlign=middle;resizable=0;points=[];autosize=1;strokeColor=none;fillColor=none;fontFamily=Helvetica;fontSize=11;fontColor=default;labelBackgroundColor=default;" vertex="1" parent="1">
          <mxGeometry x="684" y="170" width="90" height="30" as="geometry" />
        </mxCell>
      </root>
    </mxGraphModel>
  </diagram>
  <diagram name="КУ" id="KIBNGMM7OWJFDTVNsRwN">
    <mxGraphModel dx="1434" dy="1111" grid="1" gridSize="10" guides="1" tooltips="1" connect="1" arrows="1" fold="1" page="1" pageScale="1" pageWidth="1169" pageHeight="1654" math="0" shadow="0">
      <root>
        <mxCell id="nWS2qSPcP0p85uWxFDEi-0" />
        <mxCell id="nWS2qSPcP0p85uWxFDEi-1" parent="nWS2qSPcP0p85uWxFDEi-0" />
        <mxCell id="AYWO-MiJGxwgoD2tp0hv-0" style="edgeStyle=orthogonalEdgeStyle;rounded=0;orthogonalLoop=1;jettySize=auto;html=1;entryX=0.5;entryY=0;entryDx=0;entryDy=0;" edge="1" parent="nWS2qSPcP0p85uWxFDEi-1" source="nWS2qSPcP0p85uWxFDEi-2" target="nWS2qSPcP0p85uWxFDEi-8">
          <mxGeometry relative="1" as="geometry" />
        </mxCell>
        <mxCell id="nWS2qSPcP0p85uWxFDEi-2" value="Вилка" style="rounded=0;whiteSpace=wrap;html=1;fontSize=14;strokeWidth=2;" vertex="1" parent="nWS2qSPcP0p85uWxFDEi-1">
          <mxGeometry x="110" y="20" width="120" height="60" as="geometry" />
        </mxCell>
        <mxCell id="nWS2qSPcP0p85uWxFDEi-3" value="Электрообогреватель" style="rounded=0;whiteSpace=wrap;html=1;fontSize=14;strokeWidth=2;" vertex="1" parent="nWS2qSPcP0p85uWxFDEi-1">
          <mxGeometry x="270" y="20" width="150" height="60" as="geometry" />
        </mxCell>
        <mxCell id="nWS2qSPcP0p85uWxFDEi-4" value="Переключатель&lt;div&gt;нагрева&lt;/div&gt;" style="rounded=0;whiteSpace=wrap;html=1;fontSize=14;strokeWidth=2;" vertex="1" parent="nWS2qSPcP0p85uWxFDEi-1">
          <mxGeometry x="460" y="20" width="120" height="60" as="geometry" />
        </mxCell>
        <mxCell id="nWS2qSPcP0p85uWxFDEi-5" value="Нагревательный&lt;div&gt;элемент&lt;/div&gt;" style="rounded=0;whiteSpace=wrap;html=1;fontSize=14;strokeWidth=2;" vertex="1" parent="nWS2qSPcP0p85uWxFDEi-1">
          <mxGeometry x="640" y="20" width="120" height="60" as="geometry" />
        </mxCell>
        <mxCell id="nWS2qSPcP0p85uWxFDEi-6" value="Световой&lt;div&gt;индикатор нагрева&lt;/div&gt;" style="rounded=0;whiteSpace=wrap;html=1;fontSize=14;strokeWidth=2;" vertex="1" parent="nWS2qSPcP0p85uWxFDEi-1">
          <mxGeometry x="820" y="20" width="120" height="60" as="geometry" />
        </mxCell>
        <mxCell id="AYWO-MiJGxwgoD2tp0hv-1" style="edgeStyle=orthogonalEdgeStyle;rounded=0;orthogonalLoop=1;jettySize=auto;html=1;entryX=0.5;entryY=0;entryDx=0;entryDy=0;" edge="1" parent="nWS2qSPcP0p85uWxFDEi-1" source="nWS2qSPcP0p85uWxFDEi-8" target="nWS2qSPcP0p85uWxFDEi-12">
          <mxGeometry relative="1" as="geometry" />
        </mxCell>
        <mxCell id="nWS2qSPcP0p85uWxFDEi-8" value="Отключена от сети" style="rounded=0;whiteSpace=wrap;html=1;fontSize=14;" vertex="1" parent="nWS2qSPcP0p85uWxFDEi-1">
          <mxGeometry x="110" y="150" width="120" height="60" as="geometry" />
        </mxCell>
        <mxCell id="nWS2qSPcP0p85uWxFDEi-9" style="edgeStyle=orthogonalEdgeStyle;rounded=0;orthogonalLoop=1;jettySize=auto;html=1;" edge="1" parent="nWS2qSPcP0p85uWxFDEi-1" source="nWS2qSPcP0p85uWxFDEi-12">
          <mxGeometry relative="1" as="geometry">
            <mxPoint x="340" y="320" as="targetPoint" />
          </mxGeometry>
        </mxCell>
        <mxCell id="nWS2qSPcP0p85uWxFDEi-12" value="Включена в сеть" style="rounded=0;whiteSpace=wrap;html=1;fontSize=14;" vertex="1" parent="nWS2qSPcP0p85uWxFDEi-1">
          <mxGeometry x="110" y="290" width="120" height="60" as="geometry" />
        </mxCell>
        <mxCell id="nWS2qSPcP0p85uWxFDEi-15" style="edgeStyle=orthogonalEdgeStyle;rounded=0;orthogonalLoop=1;jettySize=auto;html=1;" edge="1" parent="nWS2qSPcP0p85uWxFDEi-1" source="nWS2qSPcP0p85uWxFDEi-16" target="nWS2qSPcP0p85uWxFDEi-18">
          <mxGeometry relative="1" as="geometry" />
        </mxCell>
        <mxCell id="nWS2qSPcP0p85uWxFDEi-16" value="Выключен" style="rounded=0;whiteSpace=wrap;html=1;fontSize=14;" vertex="1" parent="nWS2qSPcP0p85uWxFDEi-1">
          <mxGeometry x="280" y="150" width="120" height="60" as="geometry" />
        </mxCell>
        <mxCell id="G3vzpTyXLqGaOwDZ6wpD-0" style="edgeStyle=orthogonalEdgeStyle;rounded=0;orthogonalLoop=1;jettySize=auto;html=1;" edge="1" parent="nWS2qSPcP0p85uWxFDEi-1" source="nWS2qSPcP0p85uWxFDEi-18">
          <mxGeometry relative="1" as="geometry">
            <mxPoint x="1050" y="410" as="targetPoint" />
          </mxGeometry>
        </mxCell>
        <mxCell id="nWS2qSPcP0p85uWxFDEi-18" value="Ожидание" style="rounded=0;whiteSpace=wrap;html=1;fontSize=14;" vertex="1" parent="nWS2qSPcP0p85uWxFDEi-1">
          <mxGeometry x="280" y="380" width="120" height="60" as="geometry" />
        </mxCell>
        <mxCell id="nWS2qSPcP0p85uWxFDEi-20" value="Нагрев отключен" style="rounded=0;whiteSpace=wrap;html=1;fontSize=14;strokeWidth=1;" vertex="1" parent="nWS2qSPcP0p85uWxFDEi-1">
          <mxGeometry x="460" y="150" width="120" height="60" as="geometry" />
        </mxCell>
        <mxCell id="nWS2qSPcP0p85uWxFDEi-29" value="Отключен" style="rounded=0;whiteSpace=wrap;html=1;fontSize=14;strokeWidth=1;" vertex="1" parent="nWS2qSPcP0p85uWxFDEi-1">
          <mxGeometry x="640" y="150" width="120" height="60" as="geometry" />
        </mxCell>
        <mxCell id="nWS2qSPcP0p85uWxFDEi-35" value="Отключен" style="rounded=0;whiteSpace=wrap;html=1;fontSize=14;strokeWidth=1;" vertex="1" parent="nWS2qSPcP0p85uWxFDEi-1">
          <mxGeometry x="820" y="150" width="120" height="60" as="geometry" />
        </mxCell>
        <mxCell id="nWS2qSPcP0p85uWxFDEi-54" value="Световой&lt;div&gt;индикатор работы&lt;/div&gt;" style="rounded=0;whiteSpace=wrap;html=1;fontSize=14;strokeWidth=2;" vertex="1" parent="nWS2qSPcP0p85uWxFDEi-1">
          <mxGeometry x="990" y="20" width="120" height="60" as="geometry" />
        </mxCell>
        <mxCell id="nWS2qSPcP0p85uWxFDEi-55" style="edgeStyle=orthogonalEdgeStyle;rounded=0;orthogonalLoop=1;jettySize=auto;html=1;entryX=0.5;entryY=0;entryDx=0;entryDy=0;" edge="1" parent="nWS2qSPcP0p85uWxFDEi-1" source="nWS2qSPcP0p85uWxFDEi-56" target="nWS2qSPcP0p85uWxFDEi-58">
          <mxGeometry relative="1" as="geometry" />
        </mxCell>
        <mxCell id="nWS2qSPcP0p85uWxFDEi-56" value="Отключен" style="rounded=0;whiteSpace=wrap;html=1;fontSize=14;strokeWidth=1;" vertex="1" parent="nWS2qSPcP0p85uWxFDEi-1">
          <mxGeometry x="990" y="150" width="120" height="60" as="geometry" />
        </mxCell>
        <mxCell id="nWS2qSPcP0p85uWxFDEi-58" value="Включен" style="rounded=0;whiteSpace=wrap;html=1;fontSize=14;strokeWidth=1;" vertex="1" parent="nWS2qSPcP0p85uWxFDEi-1">
          <mxGeometry x="990" y="460" width="120" height="60" as="geometry" />
        </mxCell>
        <mxCell id="G3vzpTyXLqGaOwDZ6wpD-28" value="Вилка" style="rounded=0;whiteSpace=wrap;html=1;fontSize=14;strokeWidth=2;" vertex="1" parent="nWS2qSPcP0p85uWxFDEi-1">
          <mxGeometry x="110" y="640" width="120" height="60" as="geometry" />
        </mxCell>
        <mxCell id="G3vzpTyXLqGaOwDZ6wpD-29" value="Электрообогреватель" style="rounded=0;whiteSpace=wrap;html=1;fontSize=14;strokeWidth=2;" vertex="1" parent="nWS2qSPcP0p85uWxFDEi-1">
          <mxGeometry x="270" y="640" width="150" height="60" as="geometry" />
        </mxCell>
        <mxCell id="G3vzpTyXLqGaOwDZ6wpD-42" style="edgeStyle=orthogonalEdgeStyle;rounded=0;orthogonalLoop=1;jettySize=auto;html=1;entryX=0.5;entryY=0;entryDx=0;entryDy=0;" edge="1" parent="nWS2qSPcP0p85uWxFDEi-1" source="G3vzpTyXLqGaOwDZ6wpD-30" target="G3vzpTyXLqGaOwDZ6wpD-38">
          <mxGeometry relative="1" as="geometry" />
        </mxCell>
        <mxCell id="G3vzpTyXLqGaOwDZ6wpD-30" value="Переключатель&lt;div&gt;нагрева&lt;/div&gt;" style="rounded=0;whiteSpace=wrap;html=1;fontSize=14;strokeWidth=2;" vertex="1" parent="nWS2qSPcP0p85uWxFDEi-1">
          <mxGeometry x="460" y="640" width="120" height="60" as="geometry" />
        </mxCell>
        <mxCell id="G3vzpTyXLqGaOwDZ6wpD-31" value="Нагревательный&lt;div&gt;элемент&lt;/div&gt;" style="rounded=0;whiteSpace=wrap;html=1;fontSize=14;strokeWidth=2;" vertex="1" parent="nWS2qSPcP0p85uWxFDEi-1">
          <mxGeometry x="640" y="640" width="120" height="60" as="geometry" />
        </mxCell>
        <mxCell id="G3vzpTyXLqGaOwDZ6wpD-32" value="Световой&lt;div&gt;индикатор нагрева&lt;/div&gt;" style="rounded=0;whiteSpace=wrap;html=1;fontSize=14;strokeWidth=2;" vertex="1" parent="nWS2qSPcP0p85uWxFDEi-1">
          <mxGeometry x="820" y="640" width="120" height="60" as="geometry" />
        </mxCell>
        <mxCell id="G3vzpTyXLqGaOwDZ6wpD-33" value="Световой&lt;div&gt;индикатор работы&lt;/div&gt;" style="rounded=0;whiteSpace=wrap;html=1;fontSize=14;strokeWidth=2;" vertex="1" parent="nWS2qSPcP0p85uWxFDEi-1">
          <mxGeometry x="990" y="640" width="120" height="60" as="geometry" />
        </mxCell>
        <mxCell id="G3vzpTyXLqGaOwDZ6wpD-36" value="&amp;nbsp;Включена в сеть" style="rounded=0;whiteSpace=wrap;html=1;fontSize=14;" vertex="1" parent="nWS2qSPcP0p85uWxFDEi-1">
          <mxGeometry x="110" y="767" width="120" height="60" as="geometry" />
        </mxCell>
        <mxCell id="7i5iH01wN542xlBKtyNV-1" style="edgeStyle=orthogonalEdgeStyle;rounded=0;orthogonalLoop=1;jettySize=auto;html=1;entryX=0.5;entryY=0;entryDx=0;entryDy=0;" edge="1" parent="nWS2qSPcP0p85uWxFDEi-1" source="G3vzpTyXLqGaOwDZ6wpD-37" target="7i5iH01wN542xlBKtyNV-0">
          <mxGeometry relative="1" as="geometry" />
        </mxCell>
        <mxCell id="G3vzpTyXLqGaOwDZ6wpD-37" value="Ожидание" style="rounded=0;whiteSpace=wrap;html=1;fontSize=14;" vertex="1" parent="nWS2qSPcP0p85uWxFDEi-1">
          <mxGeometry x="280" y="767" width="120" height="60" as="geometry" />
        </mxCell>
        <mxCell id="G3vzpTyXLqGaOwDZ6wpD-44" style="edgeStyle=orthogonalEdgeStyle;rounded=0;orthogonalLoop=1;jettySize=auto;html=1;entryX=0.5;entryY=0;entryDx=0;entryDy=0;" edge="1" parent="nWS2qSPcP0p85uWxFDEi-1" source="G3vzpTyXLqGaOwDZ6wpD-38" target="G3vzpTyXLqGaOwDZ6wpD-43">
          <mxGeometry relative="1" as="geometry" />
        </mxCell>
        <mxCell id="G3vzpTyXLqGaOwDZ6wpD-38" value="Нагрев отключен" style="rounded=0;whiteSpace=wrap;html=1;fontSize=14;strokeWidth=1;" vertex="1" parent="nWS2qSPcP0p85uWxFDEi-1">
          <mxGeometry x="460" y="767" width="120" height="60" as="geometry" />
        </mxCell>
        <mxCell id="NiNsXchCnbFjA4v2FDiN-0" style="edgeStyle=orthogonalEdgeStyle;rounded=0;orthogonalLoop=1;jettySize=auto;html=1;entryX=0.5;entryY=0;entryDx=0;entryDy=0;" edge="1" parent="nWS2qSPcP0p85uWxFDEi-1" source="G3vzpTyXLqGaOwDZ6wpD-39" target="3-Fu8HtgJcl805XE-1UF-0">
          <mxGeometry relative="1" as="geometry" />
        </mxCell>
        <mxCell id="G3vzpTyXLqGaOwDZ6wpD-39" value="Отключен" style="rounded=0;whiteSpace=wrap;html=1;fontSize=14;strokeWidth=1;" vertex="1" parent="nWS2qSPcP0p85uWxFDEi-1">
          <mxGeometry x="640" y="767" width="120" height="60" as="geometry" />
        </mxCell>
        <mxCell id="7i5iH01wN542xlBKtyNV-4" style="edgeStyle=orthogonalEdgeStyle;rounded=0;orthogonalLoop=1;jettySize=auto;html=1;entryX=0.5;entryY=0;entryDx=0;entryDy=0;" edge="1" parent="nWS2qSPcP0p85uWxFDEi-1" source="G3vzpTyXLqGaOwDZ6wpD-40" target="7i5iH01wN542xlBKtyNV-3">
          <mxGeometry relative="1" as="geometry" />
        </mxCell>
        <mxCell id="G3vzpTyXLqGaOwDZ6wpD-40" value="Отключен" style="rounded=0;whiteSpace=wrap;html=1;fontSize=14;strokeWidth=1;" vertex="1" parent="nWS2qSPcP0p85uWxFDEi-1">
          <mxGeometry x="820" y="767" width="120" height="60" as="geometry" />
        </mxCell>
        <mxCell id="G3vzpTyXLqGaOwDZ6wpD-41" value="Включен" style="rounded=0;whiteSpace=wrap;html=1;fontSize=14;strokeWidth=1;" vertex="1" parent="nWS2qSPcP0p85uWxFDEi-1">
          <mxGeometry x="990" y="767" width="120" height="60" as="geometry" />
        </mxCell>
        <mxCell id="7i5iH01wN542xlBKtyNV-2" style="edgeStyle=orthogonalEdgeStyle;rounded=0;orthogonalLoop=1;jettySize=auto;html=1;" edge="1" parent="nWS2qSPcP0p85uWxFDEi-1" source="G3vzpTyXLqGaOwDZ6wpD-43">
          <mxGeometry relative="1" as="geometry">
            <mxPoint x="340" y="927" as="targetPoint" />
          </mxGeometry>
        </mxCell>
        <mxCell id="G3vzpTyXLqGaOwDZ6wpD-43" value="Нагрев включен" style="rounded=0;whiteSpace=wrap;html=1;fontSize=14;strokeWidth=1;" vertex="1" parent="nWS2qSPcP0p85uWxFDEi-1">
          <mxGeometry x="460" y="897" width="120" height="60" as="geometry" />
        </mxCell>
        <mxCell id="7i5iH01wN542xlBKtyNV-5" style="edgeStyle=orthogonalEdgeStyle;rounded=0;orthogonalLoop=1;jettySize=auto;html=1;" edge="1" parent="nWS2qSPcP0p85uWxFDEi-1" source="7i5iH01wN542xlBKtyNV-0">
          <mxGeometry relative="1" as="geometry">
            <mxPoint x="880" y="1017" as="targetPoint" />
          </mxGeometry>
        </mxCell>
        <mxCell id="NiNsXchCnbFjA4v2FDiN-1" style="edgeStyle=orthogonalEdgeStyle;rounded=0;orthogonalLoop=1;jettySize=auto;html=1;exitX=1;exitY=0.75;exitDx=0;exitDy=0;" edge="1" parent="nWS2qSPcP0p85uWxFDEi-1" source="7i5iH01wN542xlBKtyNV-0">
          <mxGeometry relative="1" as="geometry">
            <mxPoint x="700" y="1032" as="targetPoint" />
          </mxGeometry>
        </mxCell>
        <mxCell id="7i5iH01wN542xlBKtyNV-0" value="Нагрев" style="rounded=0;whiteSpace=wrap;html=1;fontSize=14;" vertex="1" parent="nWS2qSPcP0p85uWxFDEi-1">
          <mxGeometry x="280" y="987" width="120" height="60" as="geometry" />
        </mxCell>
        <mxCell id="7i5iH01wN542xlBKtyNV-3" value="Включен" style="rounded=0;whiteSpace=wrap;html=1;fontSize=14;strokeWidth=1;" vertex="1" parent="nWS2qSPcP0p85uWxFDEi-1">
          <mxGeometry x="820" y="1080" width="120" height="60" as="geometry" />
        </mxCell>
        <mxCell id="3-Fu8HtgJcl805XE-1UF-0" value="Включен" style="rounded=0;whiteSpace=wrap;html=1;fontSize=14;strokeWidth=1;" vertex="1" parent="nWS2qSPcP0p85uWxFDEi-1">
          <mxGeometry x="640" y="1080" width="120" height="60" as="geometry" />
        </mxCell>
        <mxCell id="rHuLskpUyPBu4AUCeJp1-0" value="Вилка" style="rounded=0;whiteSpace=wrap;html=1;fontSize=14;strokeWidth=2;" vertex="1" parent="nWS2qSPcP0p85uWxFDEi-1">
          <mxGeometry x="110" y="1270" width="120" height="60" as="geometry" />
        </mxCell>
        <mxCell id="rHuLskpUyPBu4AUCeJp1-1" value="Электрообогреватель" style="rounded=0;whiteSpace=wrap;html=1;fontSize=14;strokeWidth=2;" vertex="1" parent="nWS2qSPcP0p85uWxFDEi-1">
          <mxGeometry x="270" y="1270" width="150" height="60" as="geometry" />
        </mxCell>
        <mxCell id="rHuLskpUyPBu4AUCeJp1-2" style="edgeStyle=orthogonalEdgeStyle;rounded=0;orthogonalLoop=1;jettySize=auto;html=1;entryX=0.5;entryY=0;entryDx=0;entryDy=0;" edge="1" parent="nWS2qSPcP0p85uWxFDEi-1" source="rHuLskpUyPBu4AUCeJp1-3" target="rHuLskpUyPBu4AUCeJp1-11">
          <mxGeometry relative="1" as="geometry" />
        </mxCell>
        <mxCell id="rHuLskpUyPBu4AUCeJp1-3" value="Переключатель&lt;div&gt;нагрева&lt;/div&gt;" style="rounded=0;whiteSpace=wrap;html=1;fontSize=14;strokeWidth=2;" vertex="1" parent="nWS2qSPcP0p85uWxFDEi-1">
          <mxGeometry x="460" y="1270" width="120" height="60" as="geometry" />
        </mxCell>
        <mxCell id="rHuLskpUyPBu4AUCeJp1-4" value="Нагревательный&lt;div&gt;элемент&lt;/div&gt;" style="rounded=0;whiteSpace=wrap;html=1;fontSize=14;strokeWidth=2;" vertex="1" parent="nWS2qSPcP0p85uWxFDEi-1">
          <mxGeometry x="640" y="1270" width="120" height="60" as="geometry" />
        </mxCell>
        <mxCell id="rHuLskpUyPBu4AUCeJp1-5" value="Световой&lt;div&gt;индикатор нагрева&lt;/div&gt;" style="rounded=0;whiteSpace=wrap;html=1;fontSize=14;strokeWidth=2;" vertex="1" parent="nWS2qSPcP0p85uWxFDEi-1">
          <mxGeometry x="820" y="1270" width="120" height="60" as="geometry" />
        </mxCell>
        <mxCell id="rHuLskpUyPBu4AUCeJp1-6" value="Световой&lt;div&gt;индикатор работы&lt;/div&gt;" style="rounded=0;whiteSpace=wrap;html=1;fontSize=14;strokeWidth=2;" vertex="1" parent="nWS2qSPcP0p85uWxFDEi-1">
          <mxGeometry x="990" y="1270" width="120" height="60" as="geometry" />
        </mxCell>
        <mxCell id="rHuLskpUyPBu4AUCeJp1-7" value="&amp;nbsp;Включена в сеть" style="rounded=0;whiteSpace=wrap;html=1;fontSize=14;" vertex="1" parent="nWS2qSPcP0p85uWxFDEi-1">
          <mxGeometry x="110" y="1397" width="120" height="60" as="geometry" />
        </mxCell>
        <mxCell id="rHuLskpUyPBu4AUCeJp1-8" style="edgeStyle=orthogonalEdgeStyle;rounded=0;orthogonalLoop=1;jettySize=auto;html=1;entryX=0.5;entryY=0;entryDx=0;entryDy=0;" edge="1" parent="nWS2qSPcP0p85uWxFDEi-1" source="rHuLskpUyPBu4AUCeJp1-9" target="rHuLskpUyPBu4AUCeJp1-21">
          <mxGeometry relative="1" as="geometry" />
        </mxCell>
        <mxCell id="rHuLskpUyPBu4AUCeJp1-9" value="Нагрев" style="rounded=0;whiteSpace=wrap;html=1;fontSize=14;" vertex="1" parent="nWS2qSPcP0p85uWxFDEi-1">
          <mxGeometry x="280" y="1397" width="120" height="60" as="geometry" />
        </mxCell>
        <mxCell id="rHuLskpUyPBu4AUCeJp1-10" style="edgeStyle=orthogonalEdgeStyle;rounded=0;orthogonalLoop=1;jettySize=auto;html=1;entryX=0.5;entryY=0;entryDx=0;entryDy=0;" edge="1" parent="nWS2qSPcP0p85uWxFDEi-1" source="rHuLskpUyPBu4AUCeJp1-11" target="rHuLskpUyPBu4AUCeJp1-18">
          <mxGeometry relative="1" as="geometry" />
        </mxCell>
        <mxCell id="rHuLskpUyPBu4AUCeJp1-11" value="Нагрев включен" style="rounded=0;whiteSpace=wrap;html=1;fontSize=14;strokeWidth=1;" vertex="1" parent="nWS2qSPcP0p85uWxFDEi-1">
          <mxGeometry x="460" y="1397" width="120" height="60" as="geometry" />
        </mxCell>
        <mxCell id="rHuLskpUyPBu4AUCeJp1-12" style="edgeStyle=orthogonalEdgeStyle;rounded=0;orthogonalLoop=1;jettySize=auto;html=1;entryX=0.5;entryY=0;entryDx=0;entryDy=0;" edge="1" parent="nWS2qSPcP0p85uWxFDEi-1" source="rHuLskpUyPBu4AUCeJp1-13" target="rHuLskpUyPBu4AUCeJp1-23">
          <mxGeometry relative="1" as="geometry" />
        </mxCell>
        <mxCell id="rHuLskpUyPBu4AUCeJp1-13" value="Включен" style="rounded=0;whiteSpace=wrap;html=1;fontSize=14;strokeWidth=1;" vertex="1" parent="nWS2qSPcP0p85uWxFDEi-1">
          <mxGeometry x="640" y="1397" width="120" height="60" as="geometry" />
        </mxCell>
        <mxCell id="rHuLskpUyPBu4AUCeJp1-14" style="edgeStyle=orthogonalEdgeStyle;rounded=0;orthogonalLoop=1;jettySize=auto;html=1;entryX=0.5;entryY=0;entryDx=0;entryDy=0;" edge="1" parent="nWS2qSPcP0p85uWxFDEi-1" source="rHuLskpUyPBu4AUCeJp1-15" target="rHuLskpUyPBu4AUCeJp1-22">
          <mxGeometry relative="1" as="geometry" />
        </mxCell>
        <mxCell id="rHuLskpUyPBu4AUCeJp1-15" value="Включен" style="rounded=0;whiteSpace=wrap;html=1;fontSize=14;strokeWidth=1;" vertex="1" parent="nWS2qSPcP0p85uWxFDEi-1">
          <mxGeometry x="820" y="1397" width="120" height="60" as="geometry" />
        </mxCell>
        <mxCell id="rHuLskpUyPBu4AUCeJp1-16" value="Включен" style="rounded=0;whiteSpace=wrap;html=1;fontSize=14;strokeWidth=1;" vertex="1" parent="nWS2qSPcP0p85uWxFDEi-1">
          <mxGeometry x="990" y="1397" width="120" height="60" as="geometry" />
        </mxCell>
        <mxCell id="rHuLskpUyPBu4AUCeJp1-17" style="edgeStyle=orthogonalEdgeStyle;rounded=0;orthogonalLoop=1;jettySize=auto;html=1;" edge="1" parent="nWS2qSPcP0p85uWxFDEi-1" source="rHuLskpUyPBu4AUCeJp1-18">
          <mxGeometry relative="1" as="geometry">
            <mxPoint x="340" y="1557" as="targetPoint" />
          </mxGeometry>
        </mxCell>
        <mxCell id="rHuLskpUyPBu4AUCeJp1-18" value="Нагрев отключен" style="rounded=0;whiteSpace=wrap;html=1;fontSize=14;strokeWidth=1;" vertex="1" parent="nWS2qSPcP0p85uWxFDEi-1">
          <mxGeometry x="460" y="1527" width="120" height="60" as="geometry" />
        </mxCell>
        <mxCell id="rHuLskpUyPBu4AUCeJp1-19" style="edgeStyle=orthogonalEdgeStyle;rounded=0;orthogonalLoop=1;jettySize=auto;html=1;" edge="1" parent="nWS2qSPcP0p85uWxFDEi-1" source="rHuLskpUyPBu4AUCeJp1-21">
          <mxGeometry relative="1" as="geometry">
            <mxPoint x="880" y="1647" as="targetPoint" />
          </mxGeometry>
        </mxCell>
        <mxCell id="rHuLskpUyPBu4AUCeJp1-20" style="edgeStyle=orthogonalEdgeStyle;rounded=0;orthogonalLoop=1;jettySize=auto;html=1;exitX=1;exitY=0.75;exitDx=0;exitDy=0;" edge="1" parent="nWS2qSPcP0p85uWxFDEi-1" source="rHuLskpUyPBu4AUCeJp1-21">
          <mxGeometry relative="1" as="geometry">
            <mxPoint x="700" y="1662" as="targetPoint" />
          </mxGeometry>
        </mxCell>
        <mxCell id="rHuLskpUyPBu4AUCeJp1-21" value="Ожидание" style="rounded=0;whiteSpace=wrap;html=1;fontSize=14;" vertex="1" parent="nWS2qSPcP0p85uWxFDEi-1">
          <mxGeometry x="280" y="1617" width="120" height="60" as="geometry" />
        </mxCell>
        <mxCell id="rHuLskpUyPBu4AUCeJp1-22" value="Выключен" style="rounded=0;whiteSpace=wrap;html=1;fontSize=14;strokeWidth=1;" vertex="1" parent="nWS2qSPcP0p85uWxFDEi-1">
          <mxGeometry x="820" y="1710" width="120" height="60" as="geometry" />
        </mxCell>
        <mxCell id="rHuLskpUyPBu4AUCeJp1-23" value="Выключен" style="rounded=0;whiteSpace=wrap;html=1;fontSize=14;strokeWidth=1;" vertex="1" parent="nWS2qSPcP0p85uWxFDEi-1">
          <mxGeometry x="640" y="1710" width="120" height="60" as="geometry" />
        </mxCell>
        <mxCell id="rHuLskpUyPBu4AUCeJp1-24" style="edgeStyle=orthogonalEdgeStyle;rounded=0;orthogonalLoop=1;jettySize=auto;html=1;entryX=0.5;entryY=0;entryDx=0;entryDy=0;" edge="1" parent="nWS2qSPcP0p85uWxFDEi-1" source="rHuLskpUyPBu4AUCeJp1-25" target="rHuLskpUyPBu4AUCeJp1-31">
          <mxGeometry relative="1" as="geometry" />
        </mxCell>
        <mxCell id="rHuLskpUyPBu4AUCeJp1-25" value="Вилка" style="rounded=0;whiteSpace=wrap;html=1;fontSize=14;strokeWidth=2;" vertex="1" parent="nWS2qSPcP0p85uWxFDEi-1">
          <mxGeometry x="110" y="1900" width="120" height="60" as="geometry" />
        </mxCell>
        <mxCell id="rHuLskpUyPBu4AUCeJp1-26" value="Электрообогреватель" style="rounded=0;whiteSpace=wrap;html=1;fontSize=14;strokeWidth=2;" vertex="1" parent="nWS2qSPcP0p85uWxFDEi-1">
          <mxGeometry x="270" y="1900" width="150" height="60" as="geometry" />
        </mxCell>
        <mxCell id="rHuLskpUyPBu4AUCeJp1-27" value="Переключатель&lt;div&gt;нагрева&lt;/div&gt;" style="rounded=0;whiteSpace=wrap;html=1;fontSize=14;strokeWidth=2;" vertex="1" parent="nWS2qSPcP0p85uWxFDEi-1">
          <mxGeometry x="460" y="1900" width="120" height="60" as="geometry" />
        </mxCell>
        <mxCell id="rHuLskpUyPBu4AUCeJp1-28" value="Нагревательный&lt;div&gt;элемент&lt;/div&gt;" style="rounded=0;whiteSpace=wrap;html=1;fontSize=14;strokeWidth=2;" vertex="1" parent="nWS2qSPcP0p85uWxFDEi-1">
          <mxGeometry x="640" y="1900" width="120" height="60" as="geometry" />
        </mxCell>
        <mxCell id="rHuLskpUyPBu4AUCeJp1-29" value="Световой&lt;div&gt;индикатор нагрева&lt;/div&gt;" style="rounded=0;whiteSpace=wrap;html=1;fontSize=14;strokeWidth=2;" vertex="1" parent="nWS2qSPcP0p85uWxFDEi-1">
          <mxGeometry x="820" y="1900" width="120" height="60" as="geometry" />
        </mxCell>
        <mxCell id="rHuLskpUyPBu4AUCeJp1-30" style="edgeStyle=orthogonalEdgeStyle;rounded=0;orthogonalLoop=1;jettySize=auto;html=1;entryX=0.5;entryY=0;entryDx=0;entryDy=0;" edge="1" parent="nWS2qSPcP0p85uWxFDEi-1" source="rHuLskpUyPBu4AUCeJp1-31" target="rHuLskpUyPBu4AUCeJp1-33">
          <mxGeometry relative="1" as="geometry" />
        </mxCell>
        <mxCell id="rHuLskpUyPBu4AUCeJp1-31" value="Включена в сеть" style="rounded=0;whiteSpace=wrap;html=1;fontSize=14;" vertex="1" parent="nWS2qSPcP0p85uWxFDEi-1">
          <mxGeometry x="110" y="2030" width="120" height="60" as="geometry" />
        </mxCell>
        <mxCell id="rHuLskpUyPBu4AUCeJp1-32" style="edgeStyle=orthogonalEdgeStyle;rounded=0;orthogonalLoop=1;jettySize=auto;html=1;" edge="1" parent="nWS2qSPcP0p85uWxFDEi-1" source="rHuLskpUyPBu4AUCeJp1-33">
          <mxGeometry relative="1" as="geometry">
            <mxPoint x="340" y="2200" as="targetPoint" />
          </mxGeometry>
        </mxCell>
        <mxCell id="rHuLskpUyPBu4AUCeJp1-33" value="Отключена от сети" style="rounded=0;whiteSpace=wrap;html=1;fontSize=14;" vertex="1" parent="nWS2qSPcP0p85uWxFDEi-1">
          <mxGeometry x="110" y="2170" width="120" height="60" as="geometry" />
        </mxCell>
        <mxCell id="rHuLskpUyPBu4AUCeJp1-34" style="edgeStyle=orthogonalEdgeStyle;rounded=0;orthogonalLoop=1;jettySize=auto;html=1;" edge="1" parent="nWS2qSPcP0p85uWxFDEi-1" source="rHuLskpUyPBu4AUCeJp1-35" target="rHuLskpUyPBu4AUCeJp1-37">
          <mxGeometry relative="1" as="geometry" />
        </mxCell>
        <mxCell id="rHuLskpUyPBu4AUCeJp1-35" value="Ожидание" style="rounded=0;whiteSpace=wrap;html=1;fontSize=14;" vertex="1" parent="nWS2qSPcP0p85uWxFDEi-1">
          <mxGeometry x="280" y="2030" width="120" height="60" as="geometry" />
        </mxCell>
        <mxCell id="rHuLskpUyPBu4AUCeJp1-36" style="edgeStyle=orthogonalEdgeStyle;rounded=0;orthogonalLoop=1;jettySize=auto;html=1;" edge="1" parent="nWS2qSPcP0p85uWxFDEi-1" source="rHuLskpUyPBu4AUCeJp1-37">
          <mxGeometry relative="1" as="geometry">
            <mxPoint x="1050" y="2290" as="targetPoint" />
          </mxGeometry>
        </mxCell>
        <mxCell id="rHuLskpUyPBu4AUCeJp1-37" value="Выключен" style="rounded=0;whiteSpace=wrap;html=1;fontSize=14;" vertex="1" parent="nWS2qSPcP0p85uWxFDEi-1">
          <mxGeometry x="280" y="2260" width="120" height="60" as="geometry" />
        </mxCell>
        <mxCell id="rHuLskpUyPBu4AUCeJp1-38" value="Нагрев отключен" style="rounded=0;whiteSpace=wrap;html=1;fontSize=14;strokeWidth=1;" vertex="1" parent="nWS2qSPcP0p85uWxFDEi-1">
          <mxGeometry x="460" y="2030" width="120" height="60" as="geometry" />
        </mxCell>
        <mxCell id="rHuLskpUyPBu4AUCeJp1-39" value="Отключен" style="rounded=0;whiteSpace=wrap;html=1;fontSize=14;strokeWidth=1;" vertex="1" parent="nWS2qSPcP0p85uWxFDEi-1">
          <mxGeometry x="640" y="2030" width="120" height="60" as="geometry" />
        </mxCell>
        <mxCell id="rHuLskpUyPBu4AUCeJp1-40" value="Отключен" style="rounded=0;whiteSpace=wrap;html=1;fontSize=14;strokeWidth=1;" vertex="1" parent="nWS2qSPcP0p85uWxFDEi-1">
          <mxGeometry x="820" y="2030" width="120" height="60" as="geometry" />
        </mxCell>
        <mxCell id="rHuLskpUyPBu4AUCeJp1-41" value="Световой&lt;div&gt;индикатор работы&lt;/div&gt;" style="rounded=0;whiteSpace=wrap;html=1;fontSize=14;strokeWidth=2;" vertex="1" parent="nWS2qSPcP0p85uWxFDEi-1">
          <mxGeometry x="990" y="1900" width="120" height="60" as="geometry" />
        </mxCell>
        <mxCell id="rHuLskpUyPBu4AUCeJp1-42" style="edgeStyle=orthogonalEdgeStyle;rounded=0;orthogonalLoop=1;jettySize=auto;html=1;entryX=0.5;entryY=0;entryDx=0;entryDy=0;" edge="1" parent="nWS2qSPcP0p85uWxFDEi-1" source="rHuLskpUyPBu4AUCeJp1-43" target="rHuLskpUyPBu4AUCeJp1-44">
          <mxGeometry relative="1" as="geometry" />
        </mxCell>
        <mxCell id="rHuLskpUyPBu4AUCeJp1-43" value="Включен" style="rounded=0;whiteSpace=wrap;html=1;fontSize=14;strokeWidth=1;" vertex="1" parent="nWS2qSPcP0p85uWxFDEi-1">
          <mxGeometry x="990" y="2030" width="120" height="60" as="geometry" />
        </mxCell>
        <mxCell id="rHuLskpUyPBu4AUCeJp1-44" value="Выключен" style="rounded=0;whiteSpace=wrap;html=1;fontSize=14;strokeWidth=1;" vertex="1" parent="nWS2qSPcP0p85uWxFDEi-1">
          <mxGeometry x="990" y="2340" width="120" height="60" as="geometry" />
        </mxCell>
      </root>
    </mxGraphModel>
  </diagram>
  <diagram id="GJRKNNfBoj36cYKojFX3" name="ДПДД">
    <mxGraphModel dx="1545" dy="1197" grid="1" gridSize="10" guides="1" tooltips="1" connect="1" arrows="1" fold="1" page="1" pageScale="1" pageWidth="1654" pageHeight="1169" math="0" shadow="0">
      <root>
        <mxCell id="0" />
        <mxCell id="1" parent="0" />
        <mxCell id="Mvp_rfQQ2zaEA9uOgCrk-1" value="&lt;font style=&quot;font-size: 16px;&quot;&gt;&lt;b style=&quot;&quot;&gt;1. Выключен&lt;/b&gt;&lt;/font&gt;" style="text;html=1;align=center;verticalAlign=middle;resizable=0;points=[];autosize=1;strokeColor=none;fillColor=none;" parent="1" vertex="1">
          <mxGeometry x="45" y="28" width="130" height="30" as="geometry" />
        </mxCell>
        <mxCell id="Mvp_rfQQ2zaEA9uOgCrk-2" value="Э1.0 Принять событие" style="ellipse;whiteSpace=wrap;html=1;" parent="1" vertex="1">
          <mxGeometry x="220" y="80" width="120" height="80" as="geometry" />
        </mxCell>
        <mxCell id="Mvp_rfQQ2zaEA9uOgCrk-4" style="edgeStyle=orthogonalEdgeStyle;rounded=0;orthogonalLoop=1;jettySize=auto;html=1;entryX=0.5;entryY=0;entryDx=0;entryDy=0;" parent="1" target="Mvp_rfQQ2zaEA9uOgCrk-2" edge="1">
          <mxGeometry relative="1" as="geometry">
            <mxPoint x="280" y="20" as="sourcePoint" />
          </mxGeometry>
        </mxCell>
        <mxCell id="w1Wlgg-G2SJsqDgcWhiH-7" style="edgeStyle=orthogonalEdgeStyle;rounded=0;orthogonalLoop=1;jettySize=auto;html=1;exitX=0.5;exitY=1;exitDx=0;exitDy=0;entryX=0.5;entryY=0;entryDx=0;entryDy=0;dashed=1;" edge="1" parent="1" source="Mvp_rfQQ2zaEA9uOgCrk-7" target="-TEimqQNL6cP8W1IhLLG-7">
          <mxGeometry relative="1" as="geometry" />
        </mxCell>
        <mxCell id="fW8Ye5lI95iAQL2mK50P-1" style="edgeStyle=orthogonalEdgeStyle;rounded=0;orthogonalLoop=1;jettySize=auto;html=1;exitX=1;exitY=0.5;exitDx=0;exitDy=0;entryX=0.5;entryY=0;entryDx=0;entryDy=0;" edge="1" parent="1" source="Mvp_rfQQ2zaEA9uOgCrk-7" target="xL_Nh1yVTprvTdsAccoW-6">
          <mxGeometry relative="1" as="geometry" />
        </mxCell>
        <mxCell id="Mvp_rfQQ2zaEA9uOgCrk-7" value="Э1.1 Получить состояние" style="ellipse;whiteSpace=wrap;html=1;" parent="1" vertex="1">
          <mxGeometry x="40" y="210" width="120" height="80" as="geometry" />
        </mxCell>
        <mxCell id="-TEimqQNL6cP8W1IhLLG-3" style="edgeStyle=orthogonalEdgeStyle;rounded=0;orthogonalLoop=1;jettySize=auto;html=1;entryX=0.5;entryY=0;entryDx=0;entryDy=0;" parent="1" source="-TEimqQNL6cP8W1IhLLG-1" target="Mvp_rfQQ2zaEA9uOgCrk-7" edge="1">
          <mxGeometry relative="1" as="geometry" />
        </mxCell>
        <mxCell id="-TEimqQNL6cP8W1IhLLG-1" value="" style="verticalLabelPosition=bottom;verticalAlign=top;html=1;shape=mxgraph.basic.frame;dx=10;whiteSpace=wrap;" parent="1" vertex="1">
          <mxGeometry x="25" y="90" width="150" height="60" as="geometry" />
        </mxCell>
        <mxCell id="-TEimqQNL6cP8W1IhLLG-2" value="Электрообогреватель" style="text;html=1;align=center;verticalAlign=middle;resizable=0;points=[];autosize=1;strokeColor=none;fillColor=none;" parent="1" vertex="1">
          <mxGeometry x="25" y="105" width="150" height="30" as="geometry" />
        </mxCell>
        <mxCell id="-TEimqQNL6cP8W1IhLLG-5" value="Состояние Э" style="text;html=1;align=center;verticalAlign=middle;resizable=0;points=[];autosize=1;strokeColor=none;fillColor=none;" parent="1" vertex="1">
          <mxGeometry x="92" y="165" width="100" height="30" as="geometry" />
        </mxCell>
        <mxCell id="-TEimqQNL6cP8W1IhLLG-6" value="Состояние Э" style="text;html=1;align=center;verticalAlign=middle;resizable=0;points=[];autosize=1;strokeColor=none;fillColor=none;" parent="1" vertex="1">
          <mxGeometry x="170" y="220" width="100" height="30" as="geometry" />
        </mxCell>
        <mxCell id="K0fHCvBdYjvjQBMXnuL5-3" style="edgeStyle=orthogonalEdgeStyle;rounded=0;orthogonalLoop=1;jettySize=auto;html=1;entryX=0.5;entryY=0;entryDx=0;entryDy=0;" edge="1" parent="1" source="-TEimqQNL6cP8W1IhLLG-7" target="xL_Nh1yVTprvTdsAccoW-1">
          <mxGeometry relative="1" as="geometry">
            <Array as="points">
              <mxPoint x="170" y="390" />
            </Array>
          </mxGeometry>
        </mxCell>
        <mxCell id="-TEimqQNL6cP8W1IhLLG-7" value="Э1.2 Изменить состояние&amp;nbsp;&lt;div&gt;Э := Выключен(1)&lt;/div&gt;" style="ellipse;whiteSpace=wrap;html=1;" parent="1" vertex="1">
          <mxGeometry x="110" y="340" width="120" height="80" as="geometry" />
        </mxCell>
        <mxCell id="xL_Nh1yVTprvTdsAccoW-1" value="Э1.3 Записать состояние" style="ellipse;whiteSpace=wrap;html=1;" parent="1" vertex="1">
          <mxGeometry x="110" y="480" width="120" height="80" as="geometry" />
        </mxCell>
        <mxCell id="xL_Nh1yVTprvTdsAccoW-3" value="Состояние Э" style="text;html=1;align=center;verticalAlign=middle;resizable=0;points=[];autosize=1;strokeColor=none;fillColor=none;" parent="1" vertex="1">
          <mxGeometry x="76" y="437" width="100" height="30" as="geometry" />
        </mxCell>
        <mxCell id="xL_Nh1yVTprvTdsAccoW-4" style="edgeStyle=orthogonalEdgeStyle;rounded=0;orthogonalLoop=1;jettySize=auto;html=1;entryX=0.004;entryY=0.445;entryDx=0;entryDy=0;entryPerimeter=0;" parent="1" source="xL_Nh1yVTprvTdsAccoW-1" target="-TEimqQNL6cP8W1IhLLG-1" edge="1">
          <mxGeometry relative="1" as="geometry">
            <Array as="points">
              <mxPoint x="10" y="520" />
              <mxPoint x="10" y="117" />
            </Array>
          </mxGeometry>
        </mxCell>
        <mxCell id="xL_Nh1yVTprvTdsAccoW-5" value="Состояние Э" style="text;html=1;align=center;verticalAlign=middle;resizable=0;points=[];autosize=1;strokeColor=none;fillColor=none;" parent="1" vertex="1">
          <mxGeometry x="10" y="490" width="100" height="30" as="geometry" />
        </mxCell>
        <mxCell id="wslD85T30PuxW_95rWtr-1" style="edgeStyle=orthogonalEdgeStyle;rounded=0;orthogonalLoop=1;jettySize=auto;html=1;entryX=0;entryY=0.5;entryDx=0;entryDy=0;dashed=1;" parent="1" source="xL_Nh1yVTprvTdsAccoW-6" target="hd9VshDXDjfEw_c2-_jI-1" edge="1">
          <mxGeometry relative="1" as="geometry">
            <Array as="points">
              <mxPoint x="52" y="660" />
              <mxPoint x="52" y="780" />
            </Array>
          </mxGeometry>
        </mxCell>
        <mxCell id="xL_Nh1yVTprvTdsAccoW-6" value="Э1.4 Проверить прошлое состояние" style="ellipse;whiteSpace=wrap;html=1;" parent="1" vertex="1">
          <mxGeometry x="220" y="610" width="120" height="80" as="geometry" />
        </mxCell>
        <mxCell id="xL_Nh1yVTprvTdsAccoW-8" style="edgeStyle=orthogonalEdgeStyle;rounded=0;orthogonalLoop=1;jettySize=auto;html=1;entryX=0.994;entryY=0.598;entryDx=0;entryDy=0;entryPerimeter=0;" parent="1" source="Mvp_rfQQ2zaEA9uOgCrk-2" target="xL_Nh1yVTprvTdsAccoW-6" edge="1">
          <mxGeometry relative="1" as="geometry">
            <Array as="points">
              <mxPoint x="390" y="120" />
              <mxPoint x="390" y="658" />
            </Array>
          </mxGeometry>
        </mxCell>
        <mxCell id="xL_Nh1yVTprvTdsAccoW-10" value="Данные события" style="text;html=1;align=center;verticalAlign=middle;resizable=0;points=[];autosize=1;strokeColor=none;fillColor=none;" parent="1" vertex="1">
          <mxGeometry x="390" y="620" width="120" height="30" as="geometry" />
        </mxCell>
        <mxCell id="kJhJAq68jjfbUFaMZezE-4" style="edgeStyle=orthogonalEdgeStyle;rounded=0;orthogonalLoop=1;jettySize=auto;html=1;entryX=0;entryY=0.5;entryDx=0;entryDy=0;" parent="1" source="hd9VshDXDjfEw_c2-_jI-1" edge="1">
          <mxGeometry relative="1" as="geometry">
            <mxPoint x="290.00000000000546" y="779.9999999999998" as="targetPoint" />
          </mxGeometry>
        </mxCell>
        <mxCell id="hd9VshDXDjfEw_c2-_jI-1" value="Э1.5 Породить событие СИР1" style="ellipse;whiteSpace=wrap;html=1;" parent="1" vertex="1">
          <mxGeometry x="72" y="740" width="120" height="80" as="geometry" />
        </mxCell>
        <mxCell id="wslD85T30PuxW_95rWtr-2" value="Пред. сост. == Ожидание (2)" style="text;html=1;align=center;verticalAlign=middle;resizable=0;points=[];autosize=1;strokeColor=none;fillColor=none;" parent="1" vertex="1">
          <mxGeometry x="60" y="670" width="180" height="30" as="geometry" />
        </mxCell>
        <mxCell id="kJhJAq68jjfbUFaMZezE-6" style="edgeStyle=orthogonalEdgeStyle;rounded=0;orthogonalLoop=1;jettySize=auto;html=1;entryX=0;entryY=0.5;entryDx=0;entryDy=0;" parent="1" source="kJhJAq68jjfbUFaMZezE-1" edge="1">
          <mxGeometry relative="1" as="geometry">
            <mxPoint x="290.00000000000546" y="889.9999999999998" as="targetPoint" />
          </mxGeometry>
        </mxCell>
        <mxCell id="kJhJAq68jjfbUFaMZezE-1" value="Э1.6 Породить события СИН1, СИР1, НЭ1" style="ellipse;whiteSpace=wrap;html=1;" parent="1" vertex="1">
          <mxGeometry x="72" y="850" width="120" height="80" as="geometry" />
        </mxCell>
        <mxCell id="kJhJAq68jjfbUFaMZezE-9" style="edgeStyle=orthogonalEdgeStyle;rounded=0;orthogonalLoop=1;jettySize=auto;html=1;entryX=0.004;entryY=0.57;entryDx=0;entryDy=0;entryPerimeter=0;dashed=1;" parent="1" source="xL_Nh1yVTprvTdsAccoW-6" target="kJhJAq68jjfbUFaMZezE-1" edge="1">
          <mxGeometry relative="1" as="geometry">
            <Array as="points">
              <mxPoint x="40" y="640" />
              <mxPoint x="40" y="896" />
            </Array>
          </mxGeometry>
        </mxCell>
        <mxCell id="19djzDaaQ5c2-hICIIMH-1" value="Пред. сост. == Нагрев&lt;span style=&quot;background-color: transparent; color: light-dark(rgb(0, 0, 0), rgb(255, 255, 255));&quot;&gt;&amp;nbsp;(3)&lt;/span&gt;" style="text;html=1;align=center;verticalAlign=middle;resizable=0;points=[];autosize=1;strokeColor=none;fillColor=none;" parent="1" vertex="1">
          <mxGeometry x="50" y="605" width="160" height="30" as="geometry" />
        </mxCell>
        <mxCell id="8CVaypX2zCstt5dMjKSf-1" value="&lt;font style=&quot;font-size: 16px;&quot;&gt;&lt;b style=&quot;&quot;&gt;2. Ожидание&lt;/b&gt;&lt;/font&gt;" style="text;html=1;align=center;verticalAlign=middle;resizable=0;points=[];autosize=1;strokeColor=none;fillColor=none;" parent="1" vertex="1">
          <mxGeometry x="610" y="28" width="120" height="30" as="geometry" />
        </mxCell>
        <mxCell id="8CVaypX2zCstt5dMjKSf-2" value="Э2.0 Принять событие" style="ellipse;whiteSpace=wrap;html=1;" parent="1" vertex="1">
          <mxGeometry x="780" y="80" width="120" height="80" as="geometry" />
        </mxCell>
        <mxCell id="8CVaypX2zCstt5dMjKSf-3" style="edgeStyle=orthogonalEdgeStyle;rounded=0;orthogonalLoop=1;jettySize=auto;html=1;entryX=0.5;entryY=0;entryDx=0;entryDy=0;" parent="1" target="8CVaypX2zCstt5dMjKSf-2" edge="1">
          <mxGeometry relative="1" as="geometry">
            <mxPoint x="840" y="20" as="sourcePoint" />
          </mxGeometry>
        </mxCell>
        <mxCell id="w1Wlgg-G2SJsqDgcWhiH-8" style="edgeStyle=orthogonalEdgeStyle;rounded=0;orthogonalLoop=1;jettySize=auto;html=1;exitX=0.5;exitY=1;exitDx=0;exitDy=0;dashed=1;" edge="1" parent="1" source="8CVaypX2zCstt5dMjKSf-7" target="8CVaypX2zCstt5dMjKSf-14">
          <mxGeometry relative="1" as="geometry" />
        </mxCell>
        <mxCell id="fW8Ye5lI95iAQL2mK50P-2" style="edgeStyle=orthogonalEdgeStyle;rounded=0;orthogonalLoop=1;jettySize=auto;html=1;exitX=1;exitY=0.5;exitDx=0;exitDy=0;entryX=0.5;entryY=0;entryDx=0;entryDy=0;" edge="1" parent="1" source="8CVaypX2zCstt5dMjKSf-7" target="8CVaypX2zCstt5dMjKSf-22">
          <mxGeometry relative="1" as="geometry" />
        </mxCell>
        <mxCell id="8CVaypX2zCstt5dMjKSf-7" value="Э2.1 Получить состояние" style="ellipse;whiteSpace=wrap;html=1;" parent="1" vertex="1">
          <mxGeometry x="600" y="210" width="120" height="80" as="geometry" />
        </mxCell>
        <mxCell id="8CVaypX2zCstt5dMjKSf-8" style="edgeStyle=orthogonalEdgeStyle;rounded=0;orthogonalLoop=1;jettySize=auto;html=1;entryX=0.5;entryY=0;entryDx=0;entryDy=0;" parent="1" source="8CVaypX2zCstt5dMjKSf-9" target="8CVaypX2zCstt5dMjKSf-7" edge="1">
          <mxGeometry relative="1" as="geometry" />
        </mxCell>
        <mxCell id="8CVaypX2zCstt5dMjKSf-9" value="" style="verticalLabelPosition=bottom;verticalAlign=top;html=1;shape=mxgraph.basic.frame;dx=10;whiteSpace=wrap;" parent="1" vertex="1">
          <mxGeometry x="585" y="90" width="150" height="60" as="geometry" />
        </mxCell>
        <mxCell id="8CVaypX2zCstt5dMjKSf-10" value="Электрообогреватель" style="text;html=1;align=center;verticalAlign=middle;resizable=0;points=[];autosize=1;strokeColor=none;fillColor=none;" parent="1" vertex="1">
          <mxGeometry x="585" y="105" width="150" height="30" as="geometry" />
        </mxCell>
        <mxCell id="8CVaypX2zCstt5dMjKSf-11" value="Состояние Э" style="text;html=1;align=center;verticalAlign=middle;resizable=0;points=[];autosize=1;strokeColor=none;fillColor=none;" parent="1" vertex="1">
          <mxGeometry x="652" y="165" width="100" height="30" as="geometry" />
        </mxCell>
        <mxCell id="8CVaypX2zCstt5dMjKSf-12" value="Состояние Э" style="text;html=1;align=center;verticalAlign=middle;resizable=0;points=[];autosize=1;strokeColor=none;fillColor=none;" parent="1" vertex="1">
          <mxGeometry x="730" y="220" width="100" height="30" as="geometry" />
        </mxCell>
        <mxCell id="K0fHCvBdYjvjQBMXnuL5-5" style="edgeStyle=orthogonalEdgeStyle;rounded=0;orthogonalLoop=1;jettySize=auto;html=1;entryX=0.5;entryY=0;entryDx=0;entryDy=0;" edge="1" parent="1" source="8CVaypX2zCstt5dMjKSf-14" target="8CVaypX2zCstt5dMjKSf-17">
          <mxGeometry relative="1" as="geometry">
            <Array as="points">
              <mxPoint x="730" y="390" />
            </Array>
          </mxGeometry>
        </mxCell>
        <mxCell id="8CVaypX2zCstt5dMjKSf-14" value="Э2.2 Изменить состояние&amp;nbsp;&lt;div&gt;Э := Ожидание(2)&lt;/div&gt;" style="ellipse;whiteSpace=wrap;html=1;" parent="1" vertex="1">
          <mxGeometry x="670" y="340" width="120" height="80" as="geometry" />
        </mxCell>
        <mxCell id="8CVaypX2zCstt5dMjKSf-17" value="Э2.3 Записать состояние" style="ellipse;whiteSpace=wrap;html=1;" parent="1" vertex="1">
          <mxGeometry x="670" y="480" width="120" height="80" as="geometry" />
        </mxCell>
        <mxCell id="8CVaypX2zCstt5dMjKSf-18" value="Состояние Э" style="text;html=1;align=center;verticalAlign=middle;resizable=0;points=[];autosize=1;strokeColor=none;fillColor=none;" parent="1" vertex="1">
          <mxGeometry x="640" y="435" width="100" height="30" as="geometry" />
        </mxCell>
        <mxCell id="8CVaypX2zCstt5dMjKSf-19" style="edgeStyle=orthogonalEdgeStyle;rounded=0;orthogonalLoop=1;jettySize=auto;html=1;entryX=0.004;entryY=0.445;entryDx=0;entryDy=0;entryPerimeter=0;" parent="1" source="8CVaypX2zCstt5dMjKSf-17" target="8CVaypX2zCstt5dMjKSf-9" edge="1">
          <mxGeometry relative="1" as="geometry">
            <Array as="points">
              <mxPoint x="570" y="520" />
              <mxPoint x="570" y="117" />
            </Array>
          </mxGeometry>
        </mxCell>
        <mxCell id="8CVaypX2zCstt5dMjKSf-20" value="Состояние Э" style="text;html=1;align=center;verticalAlign=middle;resizable=0;points=[];autosize=1;strokeColor=none;fillColor=none;" parent="1" vertex="1">
          <mxGeometry x="570" y="490" width="100" height="30" as="geometry" />
        </mxCell>
        <mxCell id="8CVaypX2zCstt5dMjKSf-21" style="edgeStyle=orthogonalEdgeStyle;rounded=0;orthogonalLoop=1;jettySize=auto;html=1;entryX=0;entryY=0.5;entryDx=0;entryDy=0;dashed=1;" parent="1" source="8CVaypX2zCstt5dMjKSf-22" target="8CVaypX2zCstt5dMjKSf-27" edge="1">
          <mxGeometry relative="1" as="geometry">
            <Array as="points">
              <mxPoint x="612" y="660" />
              <mxPoint x="612" y="780" />
            </Array>
          </mxGeometry>
        </mxCell>
        <mxCell id="8CVaypX2zCstt5dMjKSf-22" value="Э2.4 Проверить прошлое состояние" style="ellipse;whiteSpace=wrap;html=1;" parent="1" vertex="1">
          <mxGeometry x="780" y="610" width="120" height="80" as="geometry" />
        </mxCell>
        <mxCell id="8CVaypX2zCstt5dMjKSf-23" style="edgeStyle=orthogonalEdgeStyle;rounded=0;orthogonalLoop=1;jettySize=auto;html=1;entryX=0.994;entryY=0.598;entryDx=0;entryDy=0;entryPerimeter=0;" parent="1" source="8CVaypX2zCstt5dMjKSf-2" target="8CVaypX2zCstt5dMjKSf-22" edge="1">
          <mxGeometry relative="1" as="geometry">
            <Array as="points">
              <mxPoint x="950" y="120" />
              <mxPoint x="950" y="658" />
            </Array>
          </mxGeometry>
        </mxCell>
        <mxCell id="8CVaypX2zCstt5dMjKSf-25" value="Данные события" style="text;html=1;align=center;verticalAlign=middle;resizable=0;points=[];autosize=1;strokeColor=none;fillColor=none;" parent="1" vertex="1">
          <mxGeometry x="950" y="620" width="120" height="30" as="geometry" />
        </mxCell>
        <mxCell id="8CVaypX2zCstt5dMjKSf-26" style="edgeStyle=orthogonalEdgeStyle;rounded=0;orthogonalLoop=1;jettySize=auto;html=1;entryX=0;entryY=0.5;entryDx=0;entryDy=0;" parent="1" source="8CVaypX2zCstt5dMjKSf-27" edge="1">
          <mxGeometry relative="1" as="geometry">
            <mxPoint x="850.0000000000055" y="779.9999999999998" as="targetPoint" />
          </mxGeometry>
        </mxCell>
        <mxCell id="8CVaypX2zCstt5dMjKSf-27" value="Э2.5 Породить событие СИР2" style="ellipse;whiteSpace=wrap;html=1;" parent="1" vertex="1">
          <mxGeometry x="632" y="740" width="120" height="80" as="geometry" />
        </mxCell>
        <mxCell id="8CVaypX2zCstt5dMjKSf-28" value="Пред. сост. == Выключен (1)" style="text;html=1;align=center;verticalAlign=middle;resizable=0;points=[];autosize=1;strokeColor=none;fillColor=none;" parent="1" vertex="1">
          <mxGeometry x="620" y="670" width="180" height="30" as="geometry" />
        </mxCell>
        <mxCell id="8CVaypX2zCstt5dMjKSf-29" style="edgeStyle=orthogonalEdgeStyle;rounded=0;orthogonalLoop=1;jettySize=auto;html=1;entryX=0;entryY=0.5;entryDx=0;entryDy=0;" parent="1" source="8CVaypX2zCstt5dMjKSf-30" edge="1">
          <mxGeometry relative="1" as="geometry">
            <mxPoint x="850.0000000000055" y="889.9999999999998" as="targetPoint" />
          </mxGeometry>
        </mxCell>
        <mxCell id="8CVaypX2zCstt5dMjKSf-30" value="Э2.6 Породить события СИН1, НЭ1" style="ellipse;whiteSpace=wrap;html=1;" parent="1" vertex="1">
          <mxGeometry x="632" y="850" width="120" height="80" as="geometry" />
        </mxCell>
        <mxCell id="8CVaypX2zCstt5dMjKSf-31" style="edgeStyle=orthogonalEdgeStyle;rounded=0;orthogonalLoop=1;jettySize=auto;html=1;entryX=0.004;entryY=0.57;entryDx=0;entryDy=0;entryPerimeter=0;dashed=1;" parent="1" source="8CVaypX2zCstt5dMjKSf-22" target="8CVaypX2zCstt5dMjKSf-30" edge="1">
          <mxGeometry relative="1" as="geometry">
            <Array as="points">
              <mxPoint x="600" y="640" />
              <mxPoint x="600" y="896" />
            </Array>
          </mxGeometry>
        </mxCell>
        <mxCell id="8CVaypX2zCstt5dMjKSf-32" value="Пред. сост. == Нагрев&lt;span style=&quot;background-color: transparent; color: light-dark(rgb(0, 0, 0), rgb(255, 255, 255));&quot;&gt;&amp;nbsp;(3)&lt;/span&gt;" style="text;html=1;align=center;verticalAlign=middle;resizable=0;points=[];autosize=1;strokeColor=none;fillColor=none;" parent="1" vertex="1">
          <mxGeometry x="610" y="605" width="160" height="30" as="geometry" />
        </mxCell>
        <mxCell id="zcSKueVVxsq8wbDx55c_-1" value="&lt;font style=&quot;font-size: 16px;&quot;&gt;&lt;b style=&quot;&quot;&gt;3. Нагрев&lt;/b&gt;&lt;/font&gt;" style="text;html=1;align=center;verticalAlign=middle;resizable=0;points=[];autosize=1;strokeColor=none;fillColor=none;" parent="1" vertex="1">
          <mxGeometry x="1170" y="28" width="100" height="30" as="geometry" />
        </mxCell>
        <mxCell id="yQ3YYL8rtZfOwxtAA6cA-1" value="Э1" style="text;html=1;align=center;verticalAlign=middle;resizable=0;points=[];autosize=1;strokeColor=none;fillColor=none;" parent="1" vertex="1">
          <mxGeometry x="280" y="18" width="40" height="30" as="geometry" />
        </mxCell>
        <mxCell id="nUcPaO3uT2tr1rx84leP-1" value="Э2 || Э4" style="text;html=1;align=center;verticalAlign=middle;resizable=0;points=[];autosize=1;strokeColor=none;fillColor=none;" parent="1" vertex="1">
          <mxGeometry x="835" y="18" width="70" height="30" as="geometry" />
        </mxCell>
        <mxCell id="nUcPaO3uT2tr1rx84leP-17" style="edgeStyle=orthogonalEdgeStyle;rounded=0;orthogonalLoop=1;jettySize=auto;html=1;entryX=0.5;entryY=0;entryDx=0;entryDy=0;" parent="1" source="nUcPaO3uT2tr1rx84leP-2" target="nUcPaO3uT2tr1rx84leP-16" edge="1">
          <mxGeometry relative="1" as="geometry" />
        </mxCell>
        <mxCell id="nUcPaO3uT2tr1rx84leP-2" value="Э3.0 Принять состояние" style="ellipse;whiteSpace=wrap;html=1;" parent="1" vertex="1">
          <mxGeometry x="1340" y="80" width="120" height="80" as="geometry" />
        </mxCell>
        <mxCell id="nUcPaO3uT2tr1rx84leP-3" style="edgeStyle=orthogonalEdgeStyle;rounded=0;orthogonalLoop=1;jettySize=auto;html=1;entryX=0.5;entryY=0;entryDx=0;entryDy=0;" parent="1" target="8CVaypX2zCstt5dMjKSf-2" edge="1">
          <mxGeometry relative="1" as="geometry">
            <mxPoint x="840" y="20" as="sourcePoint" />
            <mxPoint x="840" y="80" as="targetPoint" />
            <Array as="points">
              <mxPoint x="840" y="51" />
              <mxPoint x="840" y="51" />
            </Array>
          </mxGeometry>
        </mxCell>
        <mxCell id="nUcPaO3uT2tr1rx84leP-6" style="edgeStyle=orthogonalEdgeStyle;rounded=0;orthogonalLoop=1;jettySize=auto;html=1;entryX=0.5;entryY=0;entryDx=0;entryDy=0;" parent="1" target="nUcPaO3uT2tr1rx84leP-2" edge="1">
          <mxGeometry relative="1" as="geometry">
            <mxPoint x="1400" y="20" as="sourcePoint" />
          </mxGeometry>
        </mxCell>
        <mxCell id="nUcPaO3uT2tr1rx84leP-7" value="Э3" style="text;html=1;align=center;verticalAlign=middle;resizable=0;points=[];autosize=1;strokeColor=none;fillColor=none;" parent="1" vertex="1">
          <mxGeometry x="1410" y="18" width="40" height="30" as="geometry" />
        </mxCell>
        <mxCell id="nUcPaO3uT2tr1rx84leP-14" style="edgeStyle=orthogonalEdgeStyle;rounded=0;orthogonalLoop=1;jettySize=auto;html=1;entryX=0.5;entryY=0;entryDx=0;entryDy=0;" parent="1" source="nUcPaO3uT2tr1rx84leP-9" target="nUcPaO3uT2tr1rx84leP-11" edge="1">
          <mxGeometry relative="1" as="geometry" />
        </mxCell>
        <mxCell id="nUcPaO3uT2tr1rx84leP-9" value="" style="verticalLabelPosition=bottom;verticalAlign=top;html=1;shape=mxgraph.basic.frame;dx=10;whiteSpace=wrap;" parent="1" vertex="1">
          <mxGeometry x="1145" y="90" width="150" height="60" as="geometry" />
        </mxCell>
        <mxCell id="nUcPaO3uT2tr1rx84leP-10" value="Электрообогреватель" style="text;html=1;align=center;verticalAlign=middle;resizable=0;points=[];autosize=1;strokeColor=none;fillColor=none;" parent="1" vertex="1">
          <mxGeometry x="1145" y="105" width="150" height="30" as="geometry" />
        </mxCell>
        <mxCell id="nUcPaO3uT2tr1rx84leP-19" style="edgeStyle=orthogonalEdgeStyle;rounded=0;orthogonalLoop=1;jettySize=auto;html=1;entryX=0;entryY=0.5;entryDx=0;entryDy=0;" parent="1" source="nUcPaO3uT2tr1rx84leP-11" target="nUcPaO3uT2tr1rx84leP-16" edge="1">
          <mxGeometry relative="1" as="geometry" />
        </mxCell>
        <mxCell id="nUcPaO3uT2tr1rx84leP-11" value="Э3.1 Получить состояние" style="ellipse;whiteSpace=wrap;html=1;" parent="1" vertex="1">
          <mxGeometry x="1160" y="210" width="120" height="80" as="geometry" />
        </mxCell>
        <mxCell id="nUcPaO3uT2tr1rx84leP-15" value="Состояние Э" style="text;html=1;align=center;verticalAlign=middle;resizable=0;points=[];autosize=1;strokeColor=none;fillColor=none;" parent="1" vertex="1">
          <mxGeometry x="1222" y="165" width="100" height="30" as="geometry" />
        </mxCell>
        <mxCell id="nUcPaO3uT2tr1rx84leP-24" style="edgeStyle=orthogonalEdgeStyle;rounded=0;orthogonalLoop=1;jettySize=auto;html=1;exitX=0.5;exitY=1;exitDx=0;exitDy=0;entryX=0.5;entryY=0;entryDx=0;entryDy=0;dashed=1;" parent="1" source="nUcPaO3uT2tr1rx84leP-16" target="nUcPaO3uT2tr1rx84leP-23" edge="1">
          <mxGeometry relative="1" as="geometry" />
        </mxCell>
        <mxCell id="nUcPaO3uT2tr1rx84leP-16" value="Э3.2 Проверить состояние" style="ellipse;whiteSpace=wrap;html=1;" parent="1" vertex="1">
          <mxGeometry x="1340" y="210" width="120" height="80" as="geometry" />
        </mxCell>
        <mxCell id="nUcPaO3uT2tr1rx84leP-18" value="Данные события" style="text;html=1;align=center;verticalAlign=middle;resizable=0;points=[];autosize=1;strokeColor=none;fillColor=none;" parent="1" vertex="1">
          <mxGeometry x="1410" y="165" width="120" height="30" as="geometry" />
        </mxCell>
        <mxCell id="nUcPaO3uT2tr1rx84leP-22" value="Состояние Э" style="text;html=1;align=center;verticalAlign=middle;resizable=0;points=[];autosize=1;strokeColor=none;fillColor=none;" parent="1" vertex="1">
          <mxGeometry x="1260" y="210" width="100" height="30" as="geometry" />
        </mxCell>
        <mxCell id="nUcPaO3uT2tr1rx84leP-27" style="edgeStyle=orthogonalEdgeStyle;rounded=0;orthogonalLoop=1;jettySize=auto;html=1;entryX=0.5;entryY=0;entryDx=0;entryDy=0;" parent="1" source="nUcPaO3uT2tr1rx84leP-23" target="nUcPaO3uT2tr1rx84leP-26" edge="1">
          <mxGeometry relative="1" as="geometry" />
        </mxCell>
        <mxCell id="nUcPaO3uT2tr1rx84leP-23" value="Э3.3 Изменить состояние&amp;nbsp;&lt;div&gt;Э:=Нагрев&lt;/div&gt;" style="ellipse;whiteSpace=wrap;html=1;" parent="1" vertex="1">
          <mxGeometry x="1340" y="370" width="120" height="80" as="geometry" />
        </mxCell>
        <mxCell id="nUcPaO3uT2tr1rx84leP-25" value="Состояние Э == Ожидание (2)" style="text;html=1;align=center;verticalAlign=middle;resizable=0;points=[];autosize=1;strokeColor=none;fillColor=none;" parent="1" vertex="1">
          <mxGeometry x="1395" y="318" width="190" height="30" as="geometry" />
        </mxCell>
        <mxCell id="nUcPaO3uT2tr1rx84leP-32" style="edgeStyle=orthogonalEdgeStyle;rounded=0;orthogonalLoop=1;jettySize=auto;html=1;dashed=1;" parent="1" source="nUcPaO3uT2tr1rx84leP-26" target="nUcPaO3uT2tr1rx84leP-31" edge="1">
          <mxGeometry relative="1" as="geometry" />
        </mxCell>
        <mxCell id="nUcPaO3uT2tr1rx84leP-26" value="Э3.4 Записать состояние" style="ellipse;whiteSpace=wrap;html=1;" parent="1" vertex="1">
          <mxGeometry x="1340" y="510" width="120" height="80" as="geometry" />
        </mxCell>
        <mxCell id="nUcPaO3uT2tr1rx84leP-28" value="Состояние Э" style="text;html=1;align=center;verticalAlign=middle;resizable=0;points=[];autosize=1;strokeColor=none;fillColor=none;" parent="1" vertex="1">
          <mxGeometry x="1410" y="470" width="100" height="30" as="geometry" />
        </mxCell>
        <mxCell id="nUcPaO3uT2tr1rx84leP-29" style="edgeStyle=orthogonalEdgeStyle;rounded=0;orthogonalLoop=1;jettySize=auto;html=1;entryX=-0.004;entryY=0.552;entryDx=0;entryDy=0;entryPerimeter=0;" parent="1" source="nUcPaO3uT2tr1rx84leP-26" target="nUcPaO3uT2tr1rx84leP-10" edge="1">
          <mxGeometry relative="1" as="geometry" />
        </mxCell>
        <mxCell id="nUcPaO3uT2tr1rx84leP-34" style="edgeStyle=orthogonalEdgeStyle;rounded=0;orthogonalLoop=1;jettySize=auto;html=1;entryX=0;entryY=0.5;entryDx=0;entryDy=0;" parent="1" source="nUcPaO3uT2tr1rx84leP-31" edge="1">
          <mxGeometry relative="1" as="geometry">
            <mxPoint x="1550" y="700" as="targetPoint" />
          </mxGeometry>
        </mxCell>
        <mxCell id="nUcPaO3uT2tr1rx84leP-31" value="Э3.5 Породить события СИН2, НЭ2" style="ellipse;whiteSpace=wrap;html=1;" parent="1" vertex="1">
          <mxGeometry x="1340" y="660" width="120" height="80" as="geometry" />
        </mxCell>
        <mxCell id="fem79Fqt5idPxau2U7DD-1" value="" style="endArrow=none;html=1;rounded=0;" edge="1" parent="1">
          <mxGeometry width="50" height="50" relative="1" as="geometry">
            <mxPoint x="1390" y="320" as="sourcePoint" />
            <mxPoint x="1410" y="310" as="targetPoint" />
          </mxGeometry>
        </mxCell>
        <mxCell id="K0fHCvBdYjvjQBMXnuL5-7" value="" style="endArrow=none;html=1;rounded=0;" edge="1" parent="1">
          <mxGeometry width="50" height="50" relative="1" as="geometry">
            <mxPoint x="20" y="640" as="sourcePoint" />
            <mxPoint x="60" y="649" as="targetPoint" />
          </mxGeometry>
        </mxCell>
        <mxCell id="K0fHCvBdYjvjQBMXnuL5-8" value="" style="endArrow=none;html=1;rounded=0;" edge="1" parent="1">
          <mxGeometry width="50" height="50" relative="1" as="geometry">
            <mxPoint x="80" y="655" as="sourcePoint" />
            <mxPoint x="120" y="664" as="targetPoint" />
          </mxGeometry>
        </mxCell>
        <mxCell id="K0fHCvBdYjvjQBMXnuL5-9" value="" style="endArrow=none;html=1;rounded=0;" edge="1" parent="1">
          <mxGeometry width="50" height="50" relative="1" as="geometry">
            <mxPoint x="580" y="640" as="sourcePoint" />
            <mxPoint x="620" y="649" as="targetPoint" />
          </mxGeometry>
        </mxCell>
        <mxCell id="K0fHCvBdYjvjQBMXnuL5-10" value="" style="endArrow=none;html=1;rounded=0;" edge="1" parent="1">
          <mxGeometry width="50" height="50" relative="1" as="geometry">
            <mxPoint x="650" y="656" as="sourcePoint" />
            <mxPoint x="690" y="665" as="targetPoint" />
          </mxGeometry>
        </mxCell>
      </root>
    </mxGraphModel>
  </diagram>
</mxfile>
